<svg id="Layer_1" data-name="Layer 1" xmlns="http://www.w3.org/2000/svg" viewBox="0 0 1000 1000"><defs><style>.cls-1{fill:#fff;}.cls-2{fill:#f9f8f8;}.cls-3{fill:#f9f7f6;}.cls-4{fill:#f7e4ea;}.cls-5{fill:#fafbfb;}.cls-6{fill:#fafafa;}.cls-7{fill:#f9f5f4;}.cls-8{fill:#f8edef;}.cls-9{fill:#f7e6e7;}.cls-10{fill:#d52427;}.cls-11{fill:#f9f6f7;}.cls-12{fill:#f9e5e7;}.cls-13{fill:#f8ebec;}.cls-14{fill:#cc2127;}.cls-15{fill:#e02826;}.cls-16{fill:#f6efef;}.cls-17{fill:#e12e2b;}.cls-18{fill:#e12f2c;}.cls-19{fill:#f9fafb;}.cls-20{fill:#e0322e;}.cls-21{fill:#f9f7f9;}.cls-22{fill:#f6eaeb;}.cls-23{fill:#f6f3f3;}.cls-24{fill:#f6edee;}.cls-25{fill:#f7ebec;}.cls-26{fill:#f0b7b9;}.cls-27{fill:#f4d5d5;}.cls-28{fill:#f6cdcc;}.cls-29{fill:#f1bbbd;}.cls-30{fill:#efaaac;}.cls-31{fill:#f1b0b1;}.cls-32{fill:#ee8a8e;}.cls-33{fill:#e97c7f;}.cls-34{fill:#ef9c9f;}.cls-35{fill:#e33735;}.cls-36{fill:#e02b26;}.cls-37{fill:#f7e9e8;}.cls-38{fill:#e0332f;}.cls-39{fill:#e43c3b;}.cls-40{fill:#e5474a;}.cls-41{fill:#f7eaea;}.cls-42{fill:#f6e7e8;}.cls-43{fill:#e43c3a;}.cls-44{fill:#e33e3d;}.cls-45{fill:#e33d3d;}.cls-46{fill:#e4484a;}.cls-47{fill:#e87b7b;}.cls-48{fill:#e44f51;}.cls-49{fill:#e55759;}.cls-50{fill:#e55e5f;}.cls-51{fill:#e86b6e;}.cls-52{fill:#ea7375;}.cls-53{fill:#ea7f80;}.cls-54{fill:#e44648;}.cls-55{fill:#e64d50;}.cls-56{fill:#ea7678;}.cls-57{fill:#e55d5e;}.cls-58{fill:#e66567;}.cls-59{fill:#e45052;}.cls-60{fill:#ea6d71;}.cls-61{fill:#e34243;}.cls-62{fill:#f5e6e8;}.cls-63{fill:#f6eceb;}.cls-64{fill:#e56160;}.cls-65{fill:#e86a6d;}.cls-66{fill:#e54342;}.cls-67{fill:#e54343;}.cls-68{fill:#ef999c;}.cls-69{fill:#ea8082;}.cls-70{fill:#ee8e90;}.cls-71{fill:#eb8587;}.cls-72{fill:#f7e9e9;}.cls-73{fill:#e55658;}.cls-74{fill:#e44c50;}.cls-75{fill:#f7f2f1;}.cls-76{fill:#ea7a7a;}.cls-77{fill:#efa4a8;}.cls-78{fill:#f2afb1;}.cls-79{fill:#f2bbbd;}.cls-80{fill:#f2c1c3;}</style></defs><path class="cls-1" d="M756.63,409.24C756.63,551,641.73,665.87,500,665.87S243.37,551,243.37,409.24,358.26,152.61,500,152.61s256.64,114.9,256.64,256.63"/><path class="cls-2" d="M515.44,822.17c.94-1.95-2.38-5.13,1.34-6.06,2.74-.69,4.46,1,4.56,4,0,.92.37,1.81.49,2.73.14,1.28.22,2.58.33,3.87.48.72.74,1.85,2,1.11,1.28-3.14,2.55-6.29,3.85-9.42.86-2.09,2.6-2.59,4.65-2.43,2.23.18,1.8,2,2.07,3.43.66,3.3,1.25,6.61,2.16,11.45,1.92-5,3.25-8.55,4.64-12.09.89-2.28,2.77-3.44,4.94-2.57,2.6,1,.32,2.86,0,4.25a56.84,56.84,0,0,1-2,5.87c-1.4,3.07-3,6.08-4.16,9.24-.93,2.52-1.86,4.42-5.09,4-3-.42-2.73-2.67-3.09-4.65-.51-2.71-1-5.42-1.78-9.87-2,4.71-3.58,7.84-4.59,11.16-.86,2.8-2.59,3.32-5.09,3.35-3,0-2.42-2.48-2.78-4-1-4.41-1.72-8.89-2.54-13.33"/><path class="cls-3" d="M477.7,822.1c1-2-3.48-4.76.64-6,3.93-1.23,5.26,1.58,5.9,4.86.51,2.56,1.11,5.1,1.79,8.15,2.77-2.52,3.21-5.88,4.94-8.45a29.37,29.37,0,0,1,2.45-3.77,3.35,3.35,0,0,1,4.22-.48c1.84,1.06.15,2.25-.26,3.32-.6,1.58-1.34,3.11-2,4.66-3.32,6.3-6.75,12.56-9.94,18.93-1.65,3.29-3.75,5-8.1,3.34,7.71-8.11,3.36-16.31.38-24.52"/><path class="cls-3" d="M441.37,830.21c1.1-7.5,2.35-15,3.23-22.51.4-3.48,2.72-2.42,4.58-2.48,2.59-.09,1.72,1.68,1.56,3.14-.62,5.64-1.17,11.29-1.74,16.94-1.54,3.36-.8,7.06-1.5,10.55-.55,2.67-1.51,4-4.41,3.7-3.37-.37-1.6-2.77-1.78-4.29a37,37,0,0,1,.06-5"/><path class="cls-4" d="M501.7,836.69a9.24,9.24,0,0,1-2.08,6.35c-.89,1.13-1.74,3.14-3.28,2.38-2-1-.33-2.54.33-3.73a2.09,2.09,0,0,0-.58-2.9c-1.59-1.47-1.88-3.2-.39-4.95a3,3,0,0,1,3.52-1,3.81,3.81,0,0,1,2.48,3.87"/><path class="cls-5" d="M740.58,711.87c-1.78-.28-3.94-1.2-3.51,2.16a3,3,0,0,1,0,1.68c-.95,1.64,2.34,5.37-1.72,5.07-3.72-.26-1.06-3.63-1.12-5.49-.1-2.75-.3-4.82-4-4.16.39-2.57,2.32-2,3.5-2.62,2.11,1.45,6.67-2,6.85,3.36"/><path class="cls-5" d="M750.6,715.72c-3.37,5.17-3.37,5.17-6.73,1.38-2.16.56,1.79,4.37-1.85,3.77-3.25-.54-.14-2.61-.42-4a22.32,22.32,0,0,1,.13-5c.65-5,1.91-1.84,3.35-.35,1.12,1.16.52,5.58,4.19,2.46,1.48-.21,2,.3,1.33,1.75"/><path class="cls-5" d="M750.6,715.72c-.45-.58-.89-1.16-1.33-1.75.45-1.59.65-3.34,2.65-4.25,2.34,3.35.39,8,3.36,11.08-4.9,1.37-4.51-2.12-4.68-5.08"/><path class="cls-5" d="M664.92,709.68q8.79-.09,17.59-.15l7.41.58c-3.47,1.53-6.76,2.63-5.44,7.35,1.58,2.56,1.43,5.41,1.5,8.26.2,8.88-.66,17.79,1,26.64,1.13,5.84,4.27,9.11,9.64,9.39,4.93.25,8.63-2.65,10.27-8.08a4.9,4.9,0,0,0,.36-1.66c-.56-12.1,2.71-24,2-36.09a3,3,0,0,0-.56-1.56c-1.7-2-4.07-2.81-6.53-3.88,7.75-.61,15.38-1.25,23.31.45-4.19.67-4.84,3.5-4.9,6.8-.12,6.39-.28,12.78-.42,19.17-.41,5.19-.81,10.38-1.25,15.57-.34,4.06-2.4,7.35-4.73,10.53-4.17,3.77-8.85,6.52-14.58,7.15-3.75-.06-7.57.25-11.27-.25-10-1.37-16.29-7.09-18.47-17.07-2.58-2.36-3.2-5.46-3.27-8.76-.11-5.49,0-11-.07-16.45-.07-5,.84-10.23-2.93-14.62-1.13-1.31-.77-2.88,1.35-3.32"/><path class="cls-6" d="M602.79,767.61c-1.86,1.94-4.2,2.21-6.75,2.2-11.33-.06-22.67,0-34.33-.8,5-2.41,5.08-6.34,4.63-10.49A20.38,20.38,0,0,1,564,748.21c0-9.2.07-18.4-.07-27.59.47-3,.26-5.27-2.93-7.12s-2.46-4.35,1-5.66a11.2,11.2,0,0,1,3.93-.55c9.86-.07,19.73-.18,29.59.05,6.61.14,9.33,3.72,8,10-1.06,5-3.21,6-7.76,3.38s-9.19-2.47-12.27.27c-.11,12.23-.11,12.23,11.71,10.56,5.42-.76,7.4.91,7.39,6.34a17.26,17.26,0,0,1-1.52,7.15c-1,2.09-2.37,2.83-4.49,1.39-1.24-.85-2.24-2-3.7-2.57-6.82-2.83-9.37-1.18-9.41,6.13,0,1,0,1.89,0,2.83.14,2.79-.44,6.18,3,7.26,3.81,1.19,7.84,1.47,11.31-1.34,2-1.59,3.2-6,6.47-3.19,3,2.59,2.12,6.58.4,10a9.79,9.79,0,0,1-1.9,2.08"/><path class="cls-6" d="M528.75,787.84c-1.49-.2-2.83,2.27-4.43.27a3.47,3.47,0,0,1,1-4.14c7-6.33,6.42-14.88,6.94-23.1.23-3.58-.27-7.17.26-10.75-.46-9.37-.1-18.74-.38-28.1-.09-3-.7-5.95-3.07-8.21-1.78-1.69-2.16-3.46,0-5.22,7.7-2.58,15.6-1.48,23.38-.84,3.92.31,4.4,2.77,1.81,5.86-2.27,1.62-2.57,3.9-2.54,6.5.11,8.29,0,16.59.05,24.88,0,3-.49,5.62-2.52,7.86a14.21,14.21,0,0,0-.58,3.3c.93,15.31-7.58,24.66-19.85,31.69"/><path class="cls-7" d="M642.45,832c-2,3.6-4.15,7.09-5.81,10.82-1.57,3.51-3.48,5.7-8.32,3.83,8-9,2.52-18-.29-27,.7-1.11-2.73-3.28.77-3.54,2.26-.16,5.07-.78,5.84,2.73.72,3.3,1.57,6.58,2.5,10.43,2.85-3.37,4-7.07,5.58-10.48,1.31-2.89,3.67-3.72,5.89-2.53,2.61,1.38-.2,3.23-.78,4.66-1.55,3.8-3.56,7.42-5.38,11.11"/><path class="cls-8" d="M654.2,824.06c.68-5.31,1.39-10.53,2-15.79.2-1.82.82-2.73,2.8-2.61s3.18,1,2.88,3.19c-.73,5.41-1.47,10.82-2.35,16.22-.28,1.76-1.26,3.22-3.45,2.92-2.69-.35-1.55-2.5-1.85-3.93"/><path class="cls-9" d="M655.6,832.62c2.07.29,3.75,1.53,4,3.41.32,2.42-1.78,3.78-3.82,4.18-2.4.46-3.23-1.64-3.45-3.52-.26-2.2,1.3-3.36,3.27-4.07"/><path class="cls-10" d="M365,769.14c2.12-.16,4.28-.63,6.26.67-2.1-.06-4.28.54-6.26-.67"/><path class="cls-11" d="M344.58,817.7c.7,3.69,1.39,7.39,2.38,12.58,2.33-4.68,4.18-8,5.71-11.56,1.27-2.93,3.76-3.72,5.92-2.4,2.38,1.45-.39,3.17-1,4.67-1.32,3.08-2.88,6.06-4.35,9.09-2.58,4.9-5.32,9.73-7.67,14.74-1.12,2.36-2.76,2.53-4.92,2.53-1.88,0-2.27-.71-1.76-2.32,3.82-3.88,4.49-8.28,2.69-13.38a66.52,66.52,0,0,1-2.66-10.32c-.31-1.66-2.49-3.8-.33-5a4.57,4.57,0,0,1,6,1.39"/><path class="cls-12" d="M316,837c-.73,1.86-1.91,3.48-4.09,3.08s-2.95-2.13-2.72-4.29c.23-2.32,1.56-3.56,3.76-3A3.79,3.79,0,0,1,316,837"/><path class="cls-13" d="M333.37,832.62c2.07.57,3.27,1.78,3.12,4s-1.62,3.59-3.6,3.43a3.31,3.31,0,0,1-3.17-3.87,3.85,3.85,0,0,1,3.65-3.57"/><path class="cls-13" d="M323.06,840.29c-2.15-.68-3.73-1.63-3.6-3.9.13-2.11,1.38-3.65,3.5-3.66s3.26,1.5,3.31,3.7c.05,2.36-1.68,3.06-3.21,3.86"/><path class="cls-7" d="M403.75,832.5c-.41,1.62-.9,3.24-1.2,4.88-.16,1-.58,2.41-1.41,1.82-5.05-3.5-9.67,2.56-14.56.48-2.5-.86-3.31-2.87-3.19-5.21.26-5.12.83-10.23,1-15.36.15-3.49,2.45-3.34,4.75-3.12,3.28.33,1.95,3,1.55,4.35-1.06,3.7-.49,7.5-1.13,11.21-.18,1.05-.23,2.37,1,3s2-.75,2.8-1.37c4.71-3.6,4.82-8.92,4.92-14.07,0-2-.22-3.32,2.34-3.13,2.09.15,4-.09,4.2,3.11.25,4.57-1.91,8.88-1.13,13.46"/><path class="cls-14" d="M293.29,769.08c2.13-.1,4.29-.47,6.26.73-2.1-.07-4.3.57-6.26-.73"/><path class="cls-15" d="M666.7,259.62a207.21,207.21,0,0,1,45.48,75.8c20.44,60.06,17.48,119.22-11.56,175.68C666,578.49,610.48,619.91,535.72,632.84c-118.71,20.54-234-59.21-258.19-177.11-25.16-122.54,55.56-243.76,178-267.49a225.63,225.63,0,0,1,110.52,5.94,23.54,23.54,0,0,1,2.58,1.14c0,2.63-2.21,2.93-3.93,3.16-17,2.2-32,9.41-46.16,18.66-2.08.48-4.21,0-6.29.47-11.89.85-23.83-.38-35.74,1.33-40.57,5.83-76.16,21.77-105.94,50.4a185.75,185.75,0,0,0-52.31,90.24,26.61,26.61,0,0,0-1.29,8,22.07,22.07,0,0,0,2.48-5.78c10.3-29.43,25.63-55.71,48.29-77.4,32-30.68,69.72-49.12,114.26-52.81,4.91-.42,9.78-1.21,14.72-.94,2.26.12,4.6.06,6.29,2,.86,2.16,0,4.12-.86,6a63.43,63.43,0,0,0-6,32.57,5.5,5.5,0,0,1-.53,1.71c-2.59,3.37-6.34,5.33-9.65,7.83-5.51,4.16-8,9.47-8.54,16.42-.62,8-.57,16.16-2.09,23.48,9.62-12.39,23.11-15.06,38.24-13.22a13.06,13.06,0,0,1,4,1.36c7.58,6,16.17,10.31,24.8,14.51,1.61.52,3,1.73,4.81,1.66,3.25.46,6.3,1.76,9.59,2,21.07,3.41,41.81,3,62-4.95a88.5,88.5,0,0,0,23.27-14c2-1.67,3.92-3.63,6.84-3.68,3.26.32,4.66,2.9,6.24,5.25a189.41,189.41,0,0,1,21.59,44.25c1.17,3.38,2,6.88,4.13,9.91-1.53-11.13-5-21.74-9-32.19-4-10.62-8.49-21.05-14.81-30.58-1.16-1.74-2.22-3.54-2.12-5.77a5.1,5.1,0,0,1,.37-1.73c4.29-8.28,7.69-16.8,8.44-26.26.21-2.65.1-5.8,2.93-7.62"/><path class="cls-16" d="M570.7,195.33c20.48-.82,40.42,1.29,58.71,11.49,16.57,9.25,29,22.12,34.75,40.71a21.9,21.9,0,0,1,1.11,9.48c-1.8.42-3-.61-4.26-1.63-2.31-2.39-5.25-4.12-7.24-6.87a11.08,11.08,0,0,1-2-4.28,11.24,11.24,0,0,0-2.2-5.75c-10.44-16.4-25.19-26.91-44.09-31.21-4.68-1.06-9.1-4-14.23-2.72a9.46,9.46,0,0,1-4.91-.61,87.25,87.25,0,0,0-8.37-3.47c-2.44-1.67-6.31-1.34-7.23-5.14"/><path class="cls-17" d="M570.7,195.33l8.16,3.57c-.32,2.71-2.47,2.37-4.29,2.57-15,1.57-29.21,5.45-42.35,13.06-2,1.13-3.73,2.54-5.8,3.49-3.07.79-5.86.61-7.81-2.33,13.35-11.45,29.27-16.77,46.34-19.3,1.29-.19,2.65-.06,3.7-1.07h2.05"/><path class="cls-18" d="M661.86,254.45c1.13.86,2.27,1.71,3.41,2.56l1.42,2.61c-.61,10.4-2,20.61-6.94,30-1,1.82-1.6,3.9-3.81,4.7-2.44-.14-3.21-1.77-3.48-3.86,0-3.85,1.67-7.29,2.94-10.77a51.4,51.4,0,0,0,3.16-19.27c-.06-2.6-.53-5.49,3.3-6"/><path class="cls-2" d="M436.39,817.22c-3.95-3.59-7.82-1.59-11.52,1.17-.61.47-.65-1-.79-1.65a4.67,4.67,0,0,0-5.56.07c-.08,1.05-.18,2.11-.27,3.17s-.35,2.08-.53,3.12c-.9,5.8-.28,11.84-2.88,17.36a7.29,7.29,0,0,0,.56,1.59c1.05,1.67-2,5.29,2.67,5.29,3.72,0,3.5-2.56,3.85-5,.18-1.25.19-3.16,2-2.79,8.85,1.81,11.88-4.27,14.81-10.6.33-4.14,1.12-8.64-2.31-11.77m-10.54,17.67c-1.87,0-2.68-.82-2.68-2.77,0-4.85,4-11.65,6.89-11.34s2.16,2.64,2.51,4.17c0,5.6-3.08,10-6.72,9.94"/><path class="cls-2" d="M593.28,815.66c-3.17.89-5.75,3.28-9.41.56-1.8-1.33-2.54,1-2.77,2.87-.68,5.61-1.54,11.21-2.34,16.82-.21,2.05-.57,4.11-.58,6.17,0,1.84-1.46,4.39,1.63,5.15,2.71.67,4.28-.75,4.89-3.36-.09-3.88,0-4.15,1.18-3.85,4.29,1.07,7.59-.93,10.9-3.12,2.47-3.59,4.68-7.33,4.9-11.83.27-6.06-3.75-10.73-8.4-9.41m-4.59,19.21c-2.79.39-3.11-1.73-2.69-3.75.88-4.22,1.28-9.34,6.47-10.24,3.26-.57,2.29,3.08,2.67,5.45-.83,3.65-1.41,7.83-6.45,8.54"/><path class="cls-2" d="M473.14,821.18c1.44-5.11-1.13-6-5.48-5.8-8,.38-13.29,4.81-16.05,13.7a51.68,51.68,0,0,0,.87,6.13,6.09,6.09,0,0,0,8.73,4.21c2.14-1,3.69-3.16,6.43-.15,1.38,1.52,3.73-.36,4.05-3,.49-3.93,1-7.86,1.56-11.78a10.86,10.86,0,0,1-.11-3.35M460.56,834.5c-2.36-.18-2.28-2-2.29-3.75-.14-5,3.36-10.24,6.9-10.34,1.91,0,2,1.17,2,2.58-.08,4.49-4.15,11.69-6.59,11.51"/><path class="cls-3" d="M563.06,833.45a12.53,12.53,0,0,1-4.21,1.41c-2.44.53-4.05-.57-4.51-3-.54-2.82,2-2.21,3.36-2.53,2.56-.65,5.17-1.13,7.42-2.57,4.61-3,4.42-7.63-.4-10.16a9.4,9.4,0,0,0-8.14-.41c-6,2.28-7.68,7.28-8.56,12.87.12,4.77,1,9.09,6.52,10.53s9.89-.33,13.25-4.85c-1.31-1.34-2.45-2.84-4.73-1.31m-2.56-13c1,0,2.2.58,1.86,1.49-1.1,2.83-3.85,3-7.16,3.62.55-3.71,2.33-5.11,5.3-5.11"/><path class="cls-2" d="M616.81,815.51a46.42,46.42,0,0,0-4.86,1.07c-1.56,1.31-3.22,2.54-4.65,4-5.59,5.67-6,13.4-1.07,18.82,4.76,2.44,9.43-3.67,14.45,0,1.32,1,1.45-1.59,1.64-2.73.79-4.78,1.51-9.57,2.25-14.36-.21-6.92-.9-7.55-7.76-6.74m.93,8.28a18.28,18.28,0,0,1-2.74,8.44c-.71,1.31-1.79,2.63-3.52,2.23a3.53,3.53,0,0,1-2.66-3.87,11.78,11.78,0,0,1,4.9-9,4.39,4.39,0,0,1,3.13-.64c1.43.35.83,1.82.89,2.87"/><path class="cls-6" d="M403,737c-2.69-1.74-3.17-3.23-.84-5.63a12.2,12.2,0,0,0,3.29-9.27c-.37-6.93-3.59-11-10.32-13.11a28.77,28.77,0,0,0-20,.56c-5.62.87-11.4-.53-17.33,1.27,6.54.26,6.62,4.57,6.49,9.09-.18,5.68-.26,11.35-.38,17-.13,10.51,2.31,21.24-2.06,31.6l3.08.65c2.07.46,4.25-.16,6.27.67a4.78,4.78,0,0,1,3.92-.07h7.28c9.66,0,18.81-1.38,25-10.07,3.1-1.89,3.87-4.84,3.85-8.22-.05-6.37-3.06-11.14-8.27-14.49M379.32,729a19.68,19.68,0,0,0,.25-3.75,49.38,49.38,0,0,0,0-5.89c-.71-4.62,1.76-5,5.26-4.09,4.23,1.15,6.94,6.51,6.29,12.09-.5,4.12-2.41,6.43-6.87,6.68-3.93.21-5.74-.84-4.9-5m14,30.31c-2.16,4.34-5.9,5-10,4.44s-3.53-4.24-3.69-7.15c-.12-2.06,0-4.15,0-6.22,0-1.89,0-3.78,0-5.66,0-6.13,1.14-6.87,6.78-4.5,7,3,10.34,12.3,6.95,19.09"/><path class="cls-5" d="M344.14,743.84q-7.17-16-14.35-32c-3.93-4.47-3.93-4.47-7,2.28-2.12.86-1.16,3.2-2.19,4.58-.4.75-.82,1.5-1.23,2.25-4.69,5.18-7.66,11.11-7.88,18.23-2,4.55-3.9,9.14-6,13.64-2.91,6.27-4.71,13.54-12.87,15.46l.68.78c2,.59,4.25-.14,6.27.74a4.73,4.73,0,0,1,3.93-.08c3.87-1.35,8.05-.33,12.31-1.15-1.59-2.35-6.39-.78-5.26-5,1-3.68.78-9.19,4.62-10.18a33.88,33.88,0,0,1,16.26,0c3.42.86,3.49,6.21,5.07,9.55.51,1.1,1.3,2.32.53,3.75s0,2,1.42,2.07c6.64.39,13.29,1.14,20.33-.57-9.16-6-10.35-16.13-14.63-24.45m-20.33,2.39c-7.36.08-7.38.19-4.67-6.61.9-2.27,1.9-4.49,2.88-6.72a21.61,21.61,0,0,1,1.38-2.13c1.53,3.61,2.46,6.94,4.22,9.76,3.23,5.2.57,5.66-3.81,5.7"/><path class="cls-6" d="M500.21,746c.12-9,.14-18,.41-27,.12-3.87,0-7.17-5-7.51-1.1-.08-.51-1.16-.59-1.82,6.88,0,13.77-.07,20.65.18,2.09.06,4.56-.41,6.21,1.69-4.64-.4-6.19,1.8-6.15,6.33.09,10.87-.22,21.75-.32,32.62,0,2-.39,4.15.74,6.06-.79,8.54-.6,8.87,7.26,11.9a109.47,109.47,0,0,1-28.83-.19c5.58-1.09,6.09-4.89,5.85-9.3s-.16-8.67-.22-13"/><path class="cls-5" d="M466.39,762.21c-1.91-4.26-3.78-8.53-5.66-12.8,1.09-2.36,0-4.43-1-6.46-4.23-9.45-8.06-19.07-12.62-28.37-1.57-2.85-2.36-7-6.48-6.72-3.89.23-4.94,4-6.1,7.17-.2.53-.4,1-.65,1.55-6.67,15.06-14.92,29.47-18.77,45.68-.78,4.34-5,4.32-8.66,6.22,8.35,1.59,15.77.69,23.56-.34-6.08-.63-5.93-3.74-4.7-8.35,1.47-5.52,4.18-7.21,9.91-6.92,11.31.56,11.33.17,14.64,8.55,2.66,6.71,2.66,6.71,9.51,8.32,5.1-1,10.46.28,16.82-1.88-4.93-.81-8.23-2-9.85-5.65M431.29,746c1-5.53,3.82-10.19,5.83-16.32,2.39,6.06,4.32,10.93,6.31,16-4.26.88-8,.6-12.14.37"/><path class="cls-11" d="M377.7,817.65c-8.35-4.33-16.37-.63-18.34,8.43-.39,1.78-.95,3.52-1.43,5.27,5.36,10.22,13.23,11.79,19.43,3.88,4.34-5.55,4.44-10.65.34-17.58m-3.47,9.51c-.76,3.15-1.09,7.71-6.09,7.51-3.87-.16-2.46-4.06-2.48-6.41,0-3.53.8-7.32,5.14-7.53,3.74-.16,3.42,3.24,3.43,6.43"/><path class="cls-19" d="M558.21,409.28c-6.19-2-11.21.39-16.28,3.79-11.17,7.5-23.64,12.67-35.42,19.08-6.94,3.77-7.47,5.17-3.23,11.87,14.25,22.55,28.8,44.91,43.06,67.44,5.75,9.08,11.06,18.45,16.71,27.94-4.13,1.69-7.56,0-10.87-.63-21.38-4-41.77,1.37-62.15,6.38-14.08,3.46-28.19,5.45-42.72,4.18-8.28-.72-15.69-4-23.25-6.9-2-.76-2.78-2.49-3.76-4.08C411,523.41,403.54,507.48,396,491.57a6.09,6.09,0,0,1,.82-7.18c14.27-18.41,28.36-37,42.52-55.46a13.72,13.72,0,0,1,4.14-3.81q20.52-11.49,41-23.09c2.73-1.54,4.89-2,7.54.44,11.78,11,25.59,11.86,40.3,7.6a26.71,26.71,0,0,0,6.38-2.32c7.47-4.55,14.69-3.58,21.92.44,0,2.12-1.3,1.49-2.45,1.09"/><path class="cls-19" d="M352.9,469a222.93,222.93,0,0,0,13.58,50.23c2.36,5.85,5.82,11.73,8.07,17.94.43,1.19,1.42,2.56.24,3.59s-2.52.23-3.77-.18c-5-1.6-9.92-3.61-15.2-4.48-6-1-11.82-.51-17.05,2.49-4.36,2.5-4.45.52-4.41-3,.14-9.28-.3-18.59.13-27.86.66-14-3.41-26.9-7.7-39.85-2.2-6.64-4.52-13.24-6.63-19.91-5-15.93,1.33-28.81,12.24-39.45,9.19-9,32-4.69,39.59,6.94,5.57,8.53,10.19,17.67,15.34,26.48,1.89,3.23,3.7,6.55,7.13,9.44,13-18.44,29.55-32.43,50.24-41.34,13.12-5.66,26.36-11,40.89-14.66-1.91,3.37-4.66,4.42-7,5.85q-18.48,11.15-37.05,22.07a24.24,24.24,0,0,0-6.78,5.9q-15.42,19.32-31,38.5c-1.12,1.38-1.77,3.39-4.9,3.93,6.08-12,13.64-22.49,19.41-35.78-8,5.8-13.1,12.23-18.87,18-5.37,5.33-10.32,11.1-15.73,16.4-2.25,2.21-2.59,3.84-1.26,6.76,9.12,20.15,18.56,40.14,29.06,59.61.71,1.31,1.87,2.45,1.63,4.28-4.18,1.53-5.64-1.8-7.11-4.5q-9.82-17.9-19.37-35.94c-4.6-8.69-9-17.46-13.57-26.17-.84-1.61-1.34-3.52-4.21-4.87,7.27,25.54,18.86,48.39,30.38,71.41-4.66,1.57-6-1.53-7.3-4.51q-15-33.33-28-67.49c-.34-.89-.65-1.78-.95-2.67-.36-1.12-.78-2.36-2.17-2.19-1.64.2-1.82,1.68-2,3-.27,1.74,1,3.61-.6,5.83-1.4-2.14-1.32-6.67-5.39-3.6-3.67-2.28-5.48-7.49-3.77-10.76.34-.68.86-1.66,1.44-1.53,4.73,1.09,4.44-3.1,5.89-5.44,4.95,2.65,7-1.07,9.37-4.21,1.46-1.94,3.72-3.18,5.28-5.82-6.54.67-9.83,5.43-13.84,9.07-4.49-1-5.38-2.42-3.28-5.75s5.31-5.32,8.51-7.37c1.74-1.11,3.8-1.73,5.29-3.28-5.09-1.71-7.86-.81-12.85,3.57-2.19,1.93-4.43,6.5-7.66,3.23-2.39-2.43,1.35-5.31,3.05-7.64,3.5-4.8,8.5-7.3,15.22-8.62-3.85-2.63-7.12-2-10.32-1.48a30.44,30.44,0,0,0-3.76,1.21c-1.46.43-3.1,1-4.29-.26s-.13-2.82.54-4.12a12.51,12.51,0,0,0,1.54-3c-9.8-1.28-16.9,5.47-15.88,14.75a106.24,106.24,0,0,0,6.9,28.57c2.3,5.69,5.13,10.79,12.77,8.75"/><path class="cls-19" d="M502.63,232.94c-51.88-1-96.09,17.29-133.35,53.05-23.17,22.25-38.83,49.07-48.78,79.44-.87,2.66-1,7.61-4.44,6.82-4.41-1-1.69-5.64-1-8.29,19.4-75.46,66.26-123.9,142.06-143.66,18-4.68,36.28-5.21,54.7-4.41,1.42,1,3.88-.62,4.59,1.29.77,2.08-1.19,3.45-2.59,4.65-3.78,3.24-5.84,7.93-9.57,11.21a1.91,1.91,0,0,1-1.6-.1"/><path class="cls-19" d="M514,309.17c-2.08,0-4.15.05-6.21-.07-14.59-.82-26.13,4.39-34.46,18.26,0-3.64-.17-6.1,0-8.53.5-5.81,2-11.69,1.6-17.43-1.13-15.15,7.87-22.85,19.69-28.89a4.43,4.43,0,0,1,2.25,3.11c2.78,10.63,8.6,19.58,15.31,28.05,1.24,1.56,3,3.1,1.78,5.5"/><path class="cls-20" d="M649.64,305.53c-5.5,1.9-8.8,6.82-13.52,9.89a96.26,96.26,0,0,1-47.19,15.38c-11.16.73-22,.38-32.85-2.29a3.83,3.83,0,0,1-.7-1.6c.42-2.28-.26-4.81,1.47-6.8,2.9-2.05,6-.47,8.75,0,26.19,4.34,49.59-1.6,70.19-18.41,2.3-1.88,4.22-4.39,7.43-4.92,4.09.64,5.78,3.6,6.91,7.11a2.44,2.44,0,0,1-.49,1.65"/><path class="cls-21" d="M607.67,420.36c15.49,8.51,28.14,20.31,39.11,34A23.2,23.2,0,0,1,651.89,468c.24,5.5,2.26,10.2,5.22,14.71,6.32,9.64,12.47,19.39,18.73,29.06,1.58,2.44,2.45,4.52-.77,6.48-2.71,1.65-1.89,4.16-1,6.57,1.89,5.3,3.71,10.63,5.56,16-5.39,1.78-8.35.72-9.19-5.29-1-6.94-4.75-13.72.41-20.59,1.59-2.11-.36-3.9-1.51-5.56-7.83-11.36-15.65-22.72-23.57-34-1.62-2.29-2.93-4.52-1.52-7.26,1.93-3.75.63-6.56-1.76-9.69-10.51-13.77-23.3-25.26-36.21-36.64-.16-1.12.2-1.69,1.42-1.32"/><path class="cls-22" d="M546,326.1c-2,1.79-2.06-1.08-3.24-1.28-4-3.6-8.46-6.77-12.66-10.22A147.5,147.5,0,0,1,513,298.42c-6.41-7.43-10.3-16-12.89-25.33a6.71,6.71,0,0,1,.32-4.43,6.44,6.44,0,0,1,4.17-3.08,6.77,6.77,0,0,1,2.61-.2c3,.49,3.68,3,4.45,5.31,3,8.92,8.14,16.63,13.24,24.38,2,3,5.09,4.44,8.06,6.1,2.49,1.37,5,2.66,6.91,4.89.78,1.11,1,2.48,1.61,3.65,1.2.73-1.12,3.82,2.15,3.12,3.42-2.25,7-1.05,10.44-.29,2.47.55,4.24,2.69,3.46,5.06-1,2.91-.07,6-1.54,8.76-1.56,1.15-3,.63-4.54-.19s-3.63-2-5.47-.07"/><path class="cls-21" d="M649.64,305.53l-.1-1.16c0-4.52,2-7.64,6.48-9C669.21,315.53,677.55,337.66,683,361c.65,2.76,2.65,7.07-.63,8-3.72,1.13-3.76-3.83-4.61-6.32-6.47-18.83-14-37.15-25.3-53.66-.84-1.23-1.85-2.35-2.78-3.52"/><path class="cls-16" d="M501.49,269a59.91,59.91,0,0,0,14.3,29.28c4.85,5.4,10.67,9.71,15.21,15.34-2.4,2.29-4.88,1-7.12-.13s-4.26-2.17-6.42-3.21L514,309.16c-6.13-7.79-12.54-15.37-16.32-24.75-1.55-3.87-2.87-7.72-3-11.9.06-.27.1-.54.14-.81,1.19-2,2.66-3.56,5.23-3.45a2.58,2.58,0,0,1,1.44.75"/><path class="cls-23" d="M527.64,407.85c-16.48,3.93-28.84-3.33-39-15.16-14.17-16.57-18.24-36-14.54-57.3a13.74,13.74,0,0,1,3.43-7.53c-.65,4.8-1.28,8.66-1.68,12.53-2.33,22.6,5.69,41.12,22.43,56.06A40.47,40.47,0,0,0,523,406.74c1.69-.22,3.69-1.69,4.68,1.11"/><path class="cls-17" d="M500.38,268.88l-5.56,2.81c-3-11.78.62-22.56,5-33.21.79-1.91,1.84-3.7,2.78-5.54l1.17-.39a3.61,3.61,0,0,1,3.56-.55,3.88,3.88,0,0,1,1.85,2c.89,4.55-2.79,7.58-3.84,11.49-1.41,5.24-3.25,10.36-3,15.94.13,2.62-.07,5.3-2,7.43"/><path class="cls-24" d="M507.24,233l-3.44-.48c2.15-6.15,6.44-10.64,11.52-14.57-.51-1.87-2.78-.75-3.51-2.1l6.8-.2,8,1,.86.14c1.84.71,2.33,2.3,1.34,3.65-4.23,5.64-7.55,12.38-15.47,14-2.22.3-4.17-.57-6.12-1.37"/><path class="cls-25" d="M656,295.41l-6.48,9-5.82-6.71c-1.59-.56-3.2-1.06-4.24-2.53a5.84,5.84,0,0,1-1.28-3.1,5.23,5.23,0,0,1,.19-1.67c2.05-3.44,3.28-7.56,7.49-9.28,2.92,0,4,2.53,5.79,4.2,1.51,1.7,1.29,4,2.21,6a5,5,0,0,0,2.06,3.07,3.63,3.63,0,0,1,.08,1.09"/><path class="cls-16" d="M618.41,499.2c5.13,12.37,10.29,24.73,15.35,37.13.62,1.52,2.8,3.54.31,4.79s-4.17-.35-5-3c-3.8-12.24-7.69-24.45-11.54-36.69-.47-1-1-2.11.86-2.26"/><path class="cls-17" d="M517.47,310.28,531,313.61c5,2.61,10,5.26,11.76,11.21a66.43,66.43,0,0,1-25.29-14.54"/><path class="cls-25" d="M627.46,540.75c-4.16,1.48-6.29.36-7.7-3.44-2.21-5.9-5-11.61-6.87-17.83,6,6.24,9.83,14,14.57,21.27"/><path class="cls-20" d="M546,326.1c-1.17-3.63-.23-4.79,3.35-2.85l5.46,2.94c.65.2,1.35.35,1.36,1.25,0,.35,0,.71-.09,1.07A37.18,37.18,0,0,1,546,326.1"/><path class="cls-26" d="M527.64,407.85c-1.32-1.35-3.19-.47-4.68-1.11a20.3,20.3,0,0,1,8.81-1.12c-1,2.07-2.61,2-4.13,2.23"/><path class="cls-27" d="M558.21,409.28l2.45-1.09c1.71.37,3.46.6,5.16,2.84-3.11-.39-5.49-.34-7.61-1.75"/><path class="cls-28" d="M607.67,420.36l-1.42,1.32c-1.53-.89-3.21-1.61-3.85-4.19,2.29.57,4,1.27,5.27,2.87"/><path class="cls-29" d="M618.41,499.2c-.29.75-.58,1.51-.86,2.26-.73-1.79-1.47-3.57-2.33-5.69,3,0,2.41,2.28,3.19,3.43"/><path class="cls-30" d="M359.37,479.59c-1.1-.19-1.16-1.15-1.2-2s.45-1.54,1.26-1.25c.45.18.72,1.08.89,1.7s.16,1.47-.95,1.58"/><path class="cls-31" d="M583.47,416.26a5.92,5.92,0,0,1,5.39,2.3,5.87,5.87,0,0,1-5.39-2.3"/><path class="cls-32" d="M361.55,485.54c-.27.2-.67.73-.93.67a1.74,1.74,0,0,1-1.2-2.07,1.27,1.27,0,0,1,1-.84c1.17.15,1.05,1.18,1.17,2.24"/><path class="cls-33" d="M363.33,498.59c-.69-1.14-1.64-2.08-1.2-3.77,1.71.94,1.83,2.16,1.2,3.77"/><path class="cls-34" d="M616.36,493.31c-.24.83-.56,1.37-1.13.9a3.73,3.73,0,0,1-1-1.73c-.08-.28.42-.72.66-1.08l1.48,1.91"/><path class="cls-22" d="M591.33,203.57c.4-.87.91-2.08,1.91-1.8,15.7,4.3,32.08,7.44,44.17,19.46,5.09,5.06,11.13,9.57,14.19,16.51.94,2.13,3.17,4,.94,6.55-2.37,1.34-3.79-.33-5.24-1.73a34.21,34.21,0,0,0-4.53-4.06c-11.41-9-22.89-17.95-36-24.54-2.63-1.29-5.15-2.79-7.86-3.9-2.12-2.64-6.82-2.29-7.62-6.49"/><path class="cls-35" d="M591.33,203.57c2.4,2.29,6.43,2,8.22,5.24-1.24,1.94-3.26,1.91-5.08,1.62-20.25-3.29-39.26.51-57.36,9.79-2.74.3-5.22,0-6.32-3.05,1.89-3.7,5.76-4.66,9-6.4,11.76-6.23,24.52-8.41,37.63-9.4,3.28-.25,6.16,2.23,9.43.82l4.46,1.38"/><path class="cls-35" d="M643.72,237.36l8.82,6.94,2.33,3.34c3.32,9,5,18.14,1.87,27.42-1.36,4.05-1.57,9-6.19,11.37l-4.66-4.7a2.67,2.67,0,0,1-.85-1.52c.52-6.71,4-12.9,3-20-.86-6-1.38-12-4.91-17.2-1.2-1.79-3-4.18.64-5.68"/><path class="cls-20" d="M586.87,202.19a5.49,5.49,0,0,1-4.58,1.83c-16.21-2.07-30.85,2.63-44.87,10.2a70.76,70.76,0,0,1-6.7,2.83c-1.39,1-2.79.34-4.18,0l.1-.39c6.34-7.07,15.53-8.74,23.69-12.21,9-3.84,19.07-3.38,28.53-5.56l8,3.29"/><path class="cls-20" d="M650.55,286.43c1.83-6.64,5.51-12.66,5.57-20a44.92,44.92,0,0,0-1.23-11.15c-.64-2.59-1.49-5.11,0-7.68,2,2.55,5.57,3.6,7,6.81-.5.79-1.53,1.66-1.42,2.36,1.84,12.27-3.15,23.2-6.56,34.44a12.71,12.71,0,0,1-3.33-4.82"/><path class="cls-15" d="M352.9,469a10.33,10.33,0,0,0-2.39,1.44c-3.74,3.87-6,2-8.27-1.74-5.74-9.37-8.45-19.73-10.25-30.42-.07-.38,0-.76-.09-1.14-1.87-16.59-3.78-16.71,15.53-23.36,1.45-.5,3.3-1.89,4.51.24a4.35,4.35,0,0,1-.92,5.66c-1.31,1.29-3.56,1.56-4.26,4.61,8.05-4.21,15.84-7.19,24.4,1.83-11.87.22-19,5.88-24.05,14.64,2.87.94,3.58-1.69,4.78-3,4.27-4.83,9.36-7.47,15.92-7.37,1.95,0,3.55.5,4.18,2.2.86,2.29-1.37,2.88-2.79,3.5a54,54,0,0,0-13.39,8.44c-3.28,2.8-2.59,4.52,1.21,5.71l.31.44-.4.36v10.32c-3,.36-3.83-3.47-6.8-3.54a22.65,22.65,0,0,0,2.61,11.37,2.06,2.06,0,0,1,.16-.15"/><path class="cls-36" d="M356.93,451a4.15,4.15,0,0,1,.09-.78c1.18-5.16,10.56-12.41,15.5-11.87a3.57,3.57,0,0,1,2.38,1.14c.89,1.42-.2,2.62-1.29,3.31a28.55,28.55,0,0,0-12.06,15c-3.2-1.56-2.33-5.19-4.62-6.82"/><path class="cls-37" d="M556.17,327.44l-1.36-1.26c2.42-3,1.06-6.41,1.18-9.67a1.94,1.94,0,0,0-.62-1.49c-2.75-1.68-6-.25-9-1.62-1.72-.8-1.44,1.75-2.43,2.44-2.27-1.13-1.94-3.24-2-5.21.43-4.36-1.37-8.47-1.51-12.75.46-2.14.25-4.05-1.62-5.55-4.34-3.49-7.83-7.93-12.4-11.17,2.87,3.65,6.51,6.57,9.51,10.1,2,3.72,5.2,7,4.83,11.68a10.4,10.4,0,0,1-.18,1.76,2.91,2.91,0,0,1-1.59,2c-17.35-6.53-24-21.7-29.81-37.36-.52-1.39-.74-2.42-2.29-2.63a2.61,2.61,0,0,1,1.17-2.17,12.05,12.05,0,0,1,4-1.53,25,25,0,0,1,5.12.1c1.31.4,2.65.74,4,1.05,1.71,1,3.62.78,5.48.95a12.63,12.63,0,0,1,3.25,0c.82,0,1.64,0,2.46,0,1.37.05,2.71-.3,4.09-.19,1.65-.21,3.2-1,4.89-.95a9.69,9.69,0,0,1,2.52.16,3.52,3.52,0,0,1,2.14,1.17c-1.79,9.1,4.4,14.12,10,19.37,1.64,1.53,4,2.25,5.37,4.14a5.91,5.91,0,0,1,.72,1.5,7.58,7.58,0,0,1,.2,1.64c.12,1.94-1.07,3.63-1,5.57,0,.8,0,1.6-.13,2.39-.16,1.33-.9,2.51-1,3.86-.06.81-.07,1.61-.11,2.43-.3,2.48-1.45,4.84-1.08,7.41,0,1.17,0,2.35-.06,3.52a4.59,4.59,0,0,1-1.56,3.18c-.86,2.27.76,5-1.22,7.05"/><path class="cls-35" d="M557.39,320.39l.06-3.41c1.51-1.56,3.19-1.37,5.21-1,24.17,4.55,46.55.59,66.64-14.19,2.16-1.6,3.93-3.54,5.89-5.31,1.53-1.37,2.82-3.25,5.34-2.33a7.48,7.48,0,0,1,3.19,3.52c-11,10.72-23.7,18.77-38.57,22.52-12,3-24.26,4.88-36.7,2.43-3.69-.73-7.37-1.49-11.06-2.23"/><path class="cls-38" d="M500.38,268.88a50.52,50.52,0,0,1,6.83-31.68,15.6,15.6,0,0,0,1.08-3.15c1.75-1.29,3.62-.71,5.48-.4,1.72,2.35.16,4.47-.88,6.25a41.77,41.77,0,0,0-5.73,21.39,7.94,7.94,0,0,1-2.2,5.64L501.48,269a4.14,4.14,0,0,1-1.1-.13"/><path class="cls-35" d="M505,266.93a48.42,48.42,0,0,1,8.93-32.84c.22-.21.43-.43.65-.66,1.49-.06,3-1,4.41.36,1,2,.18,3.52-.87,5.18a42.31,42.31,0,0,0-6.89,21.55c-.05,2.19-.58,4.07-2.8,5-.5.38-1,.78-1.51,1.18l-1.92.19"/><path class="cls-39" d="M543.44,310.13l.51,5.71c-1.93,2.48-2,2.52-2.82,1a11.55,11.55,0,0,1-1-6.38c-1-1.89.09-4.07-.83-6l-.06-1.14c2.59-1.32,3.35.46,3.79,2.38.33,1.43-.2,3,.43,4.42"/><path class="cls-40" d="M539.28,304.47c1.44,1.83,1,3.91.83,5.95-.38-1.22-.75-2.45-1.13-3.69Z"/><path class="cls-35" d="M513.89,234.09l-5.6-.05-1.05-1,6.5-.16c.51.05.66.32.51.79Z"/><path class="cls-41" d="M514.25,233.68a8.33,8.33,0,0,0-.51-.8c6.6-2.59,9.61-8.89,14.06-13.7.74-.8-.76-1.43-1.27-2.12h4.19c2.09.4,3.79,2.35,6.17,1.6,1.39,0,2.72-.66,4.13-.46,3.36,2.28,4.05,4.57-.31,6.31a2.59,2.59,0,0,0-1.88,2.37c-.26,1.63-1.25,3.13-2.71,3.27-4.35.43-7.19,3.63-10.83,5.33a24.81,24.81,0,0,1-2.59.08,5.29,5.29,0,0,1-4.1-1.59l-4.35-.29"/><path class="cls-42" d="M646.07,280.58c-.05.38-.12.76-.17,1.15-2.51,2.95-3.35,7.17-7,9.21a2.9,2.9,0,0,1-2.18-.19,16.49,16.49,0,0,1-2.88-2.31,33.55,33.55,0,0,0-2.54-2.52,39.83,39.83,0,0,0-3-2.91,29.85,29.85,0,0,1-2.49-2.41,13.83,13.83,0,0,0-2.27-2.5,21,21,0,0,1-1.48-1.51c-1.13-1.64-3.3-2.35-4-4.38a4.67,4.67,0,0,1-.17-1.62c.22-5.33-1.3-10.79,1.33-15.91,2.6-2,4.06.47,5.88,1.51,2.67,1.61,4.63,4.06,7,6a27.84,27.84,0,0,0,2.64,2.57,45.92,45.92,0,0,0,3.55,3.7c1.15,1.27,1.72,3,3.15,4a22.87,22.87,0,0,0,2.53,2.68c1.7,1.38,1.75,3.47,2.22,5.37"/><path class="cls-43" d="M640.53,294.15c-8.78,8.71-18.63,15.81-30.29,20.15-15.78,5.87-31.93,6.59-48.34,3.27-1.47-.29-3-.4-4.46-.59l.06-3.4a3.65,3.65,0,0,1,1.39-.89c6.38-.17,12.28,2.37,18.83,2.48,14.8.26,27.95-4,41.08-10a43.64,43.64,0,0,0,14.08-10.76c1.49-1.63,2.92-4.38,6-2.45Z"/><path class="cls-44" d="M638.91,292c-2.29.31-3.69,2-4.91,3.61-9.64,12.56-24.26,16.39-38.19,19.86-12.12,3-25.15,3.23-37.37-1.87a2,2,0,0,1-.09-2.54c4.42-1.24,8.49,1,12.75,1.33,23.33,1.89,44.09-3.47,60.73-20.86,1.49-1.57,2.65-3.33,5.13-1.81l1.89,1.28a2.4,2.4,0,0,1,.06,1"/><path class="cls-45" d="M646.07,280.58l-3.46-4.42c-1.24-1.76-.76-3.73-.38-5.51,2.54-11.54-1-21.52-7.65-30.76-5.89-8.54-13.28-15.36-23.1-19-12-4.52-24.12-7.73-37.33-6.25A93.63,93.63,0,0,0,547,221.34c-1.59.22-3,0-3.88-1.55-.42-3.42,2.39-4,4.56-4.84a96.58,96.58,0,0,1,51-4.84c2.94.5,5.43,2.76,8.64,2.36,13.41,6.42,25.31,15,36.37,24.89-1.78,1.87,0,2.88.89,4.26,6.65,10.45,7.27,21.57,3.46,33.12-.65,2-1.33,3.89-2,5.84"/><path class="cls-39" d="M607.35,212.47c-6.46,1.8-12.49-1.34-18.62-2.22-9.88-1.41-19.36,0-28.52,2.42-5.6,1.49-12.07,2-16.61,6.63a2.07,2.07,0,0,1-2.18.1l-4.53-.74c17.85-9.88,36.9-12.9,57-10.06a50.91,50.91,0,0,0,5.67.21c3,.32,5.26,2.33,7.8,3.66"/><path class="cls-46" d="M558.56,311.38c0,.72-.09,1.45-.13,2.17l-.93,0a22.07,22.07,0,0,1,1.06-8c1.63-1.72,3.65-.77,5.38-.48,14.61,2.45,29,1.8,42.82-3.69,7.48-3,13.44-8.29,19.14-13.86,1.82-1.78,3.45-4.38,6.7-2.53.71.78,1.42,1.55,2.12,2.33-6.94,11.44-17.6,17.62-29.92,21.72a78.19,78.19,0,0,1-41.2,2.34,10,10,0,0,0-5-.05"/><path class="cls-25" d="M560.66,289.66a29.79,29.79,0,0,1-16-15.71c-1.25-2.7-3.06-6,1.27-8a3.29,3.29,0,0,1,3-1.81,14.63,14.63,0,0,1,3.62.13,21.67,21.67,0,0,1,4.21,1.47c3.25,1.64,4.43,4.7,5.41,7.9.13,2.38,1.35,4.56,1.36,7,.09,1.83.49,3.66-.09,5.48a4.34,4.34,0,0,1-2.77,3.55"/><path class="cls-47" d="M560.66,289.66l1.26-3.4c2-1.95,4.18-1.15,6.37-.52,18.36,5.21,31.6.34,41.73-15.32a6.94,6.94,0,0,1,3.19-3.1c3-.21,4.9.91,4.76,4.25-4.31,13.1-13.85,19.73-27,22.17a67.07,67.07,0,0,1-24.1-.05c-2.34-.42-4.35-1-5.91-2.88Z"/><path class="cls-48" d="M632.6,285c-3,.29-4.51,2.66-6.3,4.54-13.29,14-30,19-48.71,18.61a69.07,69.07,0,0,1-19-2.59c.06-.75.11-1.51.16-2.27,1.42-1.65,3.2-1.72,5.19-1.36,14,2.55,27.73,2.32,41.13-2.94,8-3.12,14.21-8.52,19.64-14.95,1.23-1.46,2.19-3.16,4.53-2.49a8.49,8.49,0,0,1,3.4,3.45"/><path class="cls-49" d="M629.2,281.59c-5.92,5.68-10.54,12.69-18.3,16.47-12.13,5.92-24.73,8.56-38.19,6.82-4.65-.59-9.33-1-14-1.55.28-1.14.55-2.29.83-3.43,5-2.25,9.49.94,14.28,1.19,15.14.78,29.32-1.53,41.17-11.77,3.09-2.67,6.65-5,8.33-9.09a2,2,0,0,1,3.29-.8l2.59,2.16"/><path class="cls-50" d="M626.61,279.43c-3.45,1.77-4.39,5.66-7.1,8.28-15.37,14.77-33.44,17.54-53.37,13.79-2.23-.42-4.4-1.06-6.61-1.6l.22-2.25a5.09,5.09,0,0,1,1.41-1,11.11,11.11,0,0,1,6.13.64c13.93,4.42,26.81.5,39.37-4.94,5.22-2.26,9.18-6.46,12.45-11.27,1.24-1.84,2-4.84,5.41-3.95,1.06.45,2,1,2.09,2.32"/><path class="cls-51" d="M560.72,297.62l-1,0c.37-1.9.75-3.78,1.12-5.67,6.73.36,13.21,2.38,20.09,2.39,13.26,0,24-4.45,32.89-14.35,2.18-2.42,1.51-6.46,5.09-7.75a10.49,10.49,0,0,1,4.4,3.73c-4.35,5.1-7.44,11.47-13.6,14.79-11.53,6.2-23.39,11-37,7.85-3.88-.9-7.88-2.16-12-1"/><path class="cls-52" d="M618.93,272.27c-5,15.48-23.24,23.86-36.45,23.28-7.42-.34-14.65-1-21.62-3.57,0-.39.07-.78.11-1.16,9.78,1.81,19.49,3.24,29.55,1.29,11.39-2.21,19.94-7.7,25-18.28a11.4,11.4,0,0,1,2.2-2.43.69.69,0,0,1,1,.05,3.2,3.2,0,0,1,.14.82"/><path class="cls-53" d="M549.32,265.57l-3.39.4-2.29-.27c-2-1.89-1.44-4.13-.82-6.33,2.34-8.26,6.5-15.21,14.16-19.64a5.61,5.61,0,0,1,1.72-.46c2.49.09,4.78.57,5.95,3.14.24,1.85-1.12,2.49-2.35,3.43-5.26,4-10.22,8.23-10.22,15.71,0,1.86-1.37,3-2.76,4"/><path class="cls-54" d="M520.79,265.8a4.16,4.16,0,0,1-3.48-1.07c-.61-11.73,2.79-22,11.21-30.36a4.6,4.6,0,0,1,2.73-.46c3.38,1.08,4.94,2.91,2.26,6.16a37.83,37.83,0,0,0-8.65,21.63c-.2,2.43-.15,5.29-4.07,4.1"/><path class="cls-55" d="M520.79,265.8c2.48-.58,2.39-2.55,2.36-4.45-.15-8.53,3.66-15.57,8.83-21.83,2.09-2.53,1.27-3.23-.86-4.3,2.69-2.76,5.29-1.78,7.85.22a2.87,2.87,0,0,1-.57,4.06c-6.8,6.3-8.88,14.62-10,23.29a6,6,0,0,1-1.78,4c-2,.15-4,.33-5.78-1"/><path class="cls-56" d="M557.3,240.75c-7.49,6.71-12.84,14.58-13.65,24.94l-2.23.2c-3.94-2.36-3.32-6-2.33-9.42a30.48,30.48,0,0,1,13.47-17.84c2.11-.49,3.88-.19,4.74,2.12"/><path class="cls-43" d="M518.6,234l4.55.23c1.73,2.06-.07,3.76-1,5.09-4.44,6.54-7.42,13.52-8,21.47a5,5,0,0,1-1.31,2.49,15.73,15.73,0,0,1-1.16,1.15l-3.37,1.15c2.11-3.45.8-7.37,1.55-11.05,1.53-7.47,4.9-14.07,8.66-20.53"/><path class="cls-57" d="M532.27,266.85l-2.28,0c-3.33-4.58-1.56-9.53-.13-13.91a32.7,32.7,0,0,1,11.3-16.43,3.7,3.7,0,0,1,3.6.32c1.74,2.16.49,3.85-.92,5.44-5,5.57-8.19,11.93-8.66,19.46a6.61,6.61,0,0,1-2.91,5.14"/><path class="cls-58" d="M532.27,266.85a52.1,52.1,0,0,1,12.5-29.28,2.32,2.32,0,0,1,2.34-1c1.6.47,2.7,1.38,2.69,3.19-3,4.89-7.78,8.49-9.65,14.31-.81,2.52-1.8,4.85-1.63,7.54.13,1.93,0,3.79-1.71,5.13l-4.54.14"/><path class="cls-59" d="M534.17,292.05c-4.38-3.82-7.78-8.64-12.76-12,5.48-3.32,18.83,7.38,21,16.41-1.77,1.41-3,.24-4.19-.92s-2.06-3.06-4-3.53"/><path class="cls-60" d="M536.81,266.71c-1.33-11.64,3.87-20.25,12.66-27.17a2.13,2.13,0,0,1,3.28.17c-4,5.06-9.68,8.76-11.31,15.86-.86,3.68-1.56,6.86,0,10.32Z"/><path class="cls-49" d="M541.45,237.09c-1.61,3.21-4.7,5.21-6.54,8.34A33.58,33.58,0,0,0,530,266.84l-3.42,0c0-11.83,3.42-22.26,12.51-30.34,1.14-1.16,1.94-1,2.37.62"/><path class="cls-61" d="M511.76,264.4c0-.31,0-.62,0-.93,1.41-1.18,2.86-2.15,2.89-4.43.1-9.66,4.85-17.31,10.85-24.38,1.15-.13,2.35-.64,3.34.44-7.14,8.59-8.79,19.32-11.54,29.62l-5.55-.32"/><path class="cls-40" d="M534.17,292.05c3.71-.32,4.79,4.24,8.21,4.45q.54,6.83,1.06,13.63c-1.88-2,.2-6.41-4.22-6.8a24.14,24.14,0,0,0-5.05-11.28"/><path class="cls-62" d="M528.85,235.1l-3.27-.4c-.33-.08-.47-.22-.43-.42s.11-.35.2-.35c2-3.07,4.1-5.49,8.58-4.82,5.09.76,1.06-5.05,3.81-6.17,1.77-.71,6.72,2.13,3.68-3.54l2.18-.11a4.38,4.38,0,0,0,3.48.83,15.26,15.26,0,0,1,5.67-.35c1.57.32,3,1.09,4.64,1.28a16.69,16.69,0,0,0,4.6,1.25,9.5,9.5,0,0,1,3.51,2,3.29,3.29,0,0,1,.46,1.55c-.35,2.56-2.13,3.94-4.27,4.82-5,2.08-9.68,5-14.79,6.95l-2.13-.1-3.33-.48-2.36-.62-8-1.24-2.27-.13"/><path class="cls-44" d="M525.35,233.94a3.36,3.36,0,0,1,.24.76c-1.89,3.63-3.77,7.26-5.67,10.88-2.2,4.18-4.16,8.41-3.6,13.33.4,3.42-1.18,4.89-4.55,4.56.8-10.92,5.47-20.33,11.38-29.27l2.2-.26"/><path class="cls-63" d="M564.29,242.77l-5.77-2.3c-.69-4.76,2.76-5.49,6.14-6.43,6-1.64,12.23-1.87,18.34-2.92a7.06,7.06,0,0,1,2.63.2,160.11,160.11,0,0,1,30.31,17.31c1.79,1.63,4.64,2.54,3.95,5.84-.39,5.66.74,11.41-1.1,17a5.08,5.08,0,0,1-1-.05,10.13,10.13,0,0,0-4.61-3.74c-2.38.36-3.91-1.11-5.49-2.5a5.49,5.49,0,0,1-1.3-2.9c.09-6.49-4.26-10.19-8.75-13.72-6.32-4.94-13.8-5.58-21.45-5.51-2.17,0-3.36,1.48-4.78,2.68a6,6,0,0,1-7.09-2.93"/><path class="cls-40" d="M557.3,222.53a6.83,6.83,0,0,1-4.53-1.22c-.38-2.29,1.36-3,2.93-3.52A81,81,0,0,1,593.6,215c9.5,1.46,18,5.41,26.33,9.79,4.46,2.33,7.69,6.14,10.89,9.74a74.24,74.24,0,0,1,6,7.35c2.76,5.91,5.52,11.76,6.09,18.42.41,4.72.57,9.28-2.53,13.29a11.31,11.31,0,0,1-3.6-4.05c-2.76-4-.81-8.76-2.17-13.19-6.17-20.1-20.49-30.33-40.08-34.7-10.38-2.45-20.77-3-31.1.21-2.06.65-4.12.32-6.17.64"/><path class="cls-64" d="M565.58,225.74a4.62,4.62,0,0,0-.39-.91c6-4.41,13-3.21,19.47-2.54,6.78.71,13.68,1.76,20.14,4.4,8.65,4.1,16.37,9.5,21.48,17.74,3.59,5.79,6.51,12,4.93,19.27l-6.69-6.06C614.07,235,595,228.17,571.81,229c-2.54-.2-5-.58-6.23-3.27"/><path class="cls-65" d="M571.92,227.16c9-1.34,18,.47,26.16,2.85,8.74,2.52,17.3,7.48,21.83,16.52,1.79,3.57,5.6,6.37,4.61,11.11l-4.63-3.17-4.72-4.23a54.08,54.08,0,0,0-27.89-16.86,3.3,3.3,0,0,1-1.52-.62l-2-.11c-4.2-1.28-9.7.24-11.84-5.49"/><path class="cls-61" d="M558.56,311.38c2.56-3.18,5.89-1.1,8.67-.91,9.35.62,18.57,2.12,28-.2,14.31-3.54,27.64-8.44,36.72-21,.61-.84,1.85-1.25,2.79-1.87.75.77,1.49,1.54,2.24,2.3-4.52,1.83-6.9,6.17-10.41,9.17-10.08,8.58-21.88,12.33-34.46,14.7a66.84,66.84,0,0,1-33.53-2.16"/><path class="cls-55" d="M594.87,220.24c12.43,1.74,22.68,7.6,31,16.83s13.56,19.56,11,32.5c-1.11-1.2-2.23-2.4-3.33-3.61-1.55-2.69-1.68-5.83-2.3-8.71C628.31,243.72,619.72,235.12,608,229c-4.24-2.62-9-3.74-13.8-4.83-1.67-.38-4-.06-4.16-2.84a3.37,3.37,0,0,1,4.82-1"/><path class="cls-58" d="M560.72,297.62c3.44-4.31,7.91-1.29,11.23-.64,18.53,3.65,37-3.05,47.54-18.37,1.07-1.55,1.86-2.74,3.84-2.61l1.19,1.1c-4.72,4.24-7,10.62-12.76,14-12.42,7.32-25.46,11.56-40,8.9-3.69-.68-7.34-1.6-11-2.4"/><path class="cls-49" d="M608.53,228.21c12.42,4.61,26.53,20.66,25,37.75l-2.28-2.25c-2.3-11.2-6.12-21.5-15.8-28.69-3.31-2.47-7.46-3.65-10.3-6.81a2.65,2.65,0,0,1,3.42,0"/><path class="cls-66" d="M640.42,273.62c-.87-4.44.69-8.77.68-13.23,0-7-4.36-12.16-5.26-18.53a2.46,2.46,0,0,1,0-3.41c8.2,11.51,11.91,23.81,6.76,37.71-.72-.85-1.45-1.69-2.18-2.54"/><path class="cls-67" d="M635.84,238.45v3.41c-3.43-1.67-4.63-5.41-7.26-7.84-13.06-12.1-28.33-18.42-46.29-18.42-10.29,0-20.38.2-29.52,5.71-2,.12-4,.42-5.69-1.19,5.63-4.19,12.42-5.35,19-6.48,18.24-3.12,35.64-.11,52.11,8.53,7.43,3.88,12.55,10,17.66,16.28"/><path class="cls-68" d="M560.71,273.75c-1.38-2.37-2.1-5.2-4.7-6.71-1.4-10.52,3.64-18.05,14.14-21,1.14-.31,1.92-1.2,3-1.55,3.31-.32,6.11.38,7.52,3.8-.17,2.82-2.31,2.88-4.39,3.38-3.68.89-7.33,2.21-9.67,5.36-4.46,6-2.39,12.47,5.13,16.77,10.64,6.07,23-.3,24-12.37.16-1.94.3-3.86,2.71-4.4a4.74,4.74,0,0,1,4.47,2.72c2.46,10.16-.65,15.93-10.82,20.52-7.45,3.37-14.95,3.32-22.63,1a14.75,14.75,0,0,1-8.8-7.51"/><path class="cls-69" d="M608.75,264.44a9.22,9.22,0,0,1,4.41,3.22c-1.67,8.14-7.15,14.14-13.76,17.62a40.08,40.08,0,0,1-29.89,3.05c-2.54-.71-4.88-2.05-7.59-2.07,0-1.9,0-3.81,0-5.7,1.93-1.71,3.84-.78,5.78,0,9.7,4,19.15,2.88,28.24-1.79,3.75-1.93,6.22-5.29,7.87-9.26.94-2.29,1.35-5.34,5-5.09"/><path class="cls-70" d="M608.75,264.44c-3.52,2.94-2.85,8-6.08,11.31-9.16,9.44-22.43,11.81-37.07,6.1-1.23-.48-2.48-.87-3.73-1.29-1.6-2.06-1-4.49-1.16-6.81,6.59,5,13.68,8,22.29,6.87,12-1.62,21-7.42,18.73-20.77,2.89-1.32,4.47,0,5.44,2.65l1.58,1.94"/><path class="cls-71" d="M564.29,242.77l4.37,1.41c.48,2.71-2.17,2.82-3.46,3.76-5.16,3.75-9.64,7.73-9.8,14.81,0,1.36-.13,3.66-2.8,3.13l-3.28-.3c1.82-5.1.64-10.86,5.41-15.45a40.91,40.91,0,0,1,9.56-7.36"/><path class="cls-70" d="M552.61,265.88c1.13-10.35,6.68-17.44,16-21.7l2.32.93a1.47,1.47,0,0,1,2.23.48c-2.85,2.06-6.37,2.82-9.11,5.26-4,3.63-7.49,7.26-6.85,13.2a3.58,3.58,0,0,1-1.24,3l-3.4-1.16"/><path class="cls-72" d="M571.92,227.16c3.71,2.33,8.32,2.74,11.84,5.49-6.39,1.17-12.76,2.69-19.2,3.39-3.25.37-4.47,2.36-6,4.43l-1.22.28a5.66,5.66,0,0,0-4.55-1l-3.29-.17-2.56-1.88c2.49-4.67,7.54-5.56,11.7-7.52a25.5,25.5,0,0,0,7-4.41l6.34,1.42"/><path class="cls-73" d="M608.53,228.21h-3.42c-9.33-2-18.5-4.93-28.19-4.51-3.91.16-7.82.73-11.72,1.13a4.65,4.65,0,0,1-3.52-1.09c2.08-4.14,6.35-2.89,9.59-3.44,6.33-1.08,12.87-2.15,19,1.08,6,2.39,12.94,2.41,18.22,6.83"/><path class="cls-74" d="M590.31,221.38a82,82,0,0,0-28.63,2.36c-1.57,0-3.13-.05-4.38-1.21,5.17-3.38,11.21-3.92,17-4.39,6.87-.55,13.9-.53,20.55,2.1l-4.56,1.14"/><path class="cls-75" d="M573.21,245.58l-2.23-.46a4.94,4.94,0,0,1,4-4.26c10.84-2.79,28.55,5.92,32.55,16,.79,2,1.69,3.87-.31,5.65l-5.45-2.65-3.36-2.13c-7-1.16-12.78-4.82-18.25-9.1-2-1.74-4.48-2.32-6.91-3"/><path class="cls-76" d="M585.76,232.77c12-.2,20.58,6.29,28.41,14.31a3.92,3.92,0,0,1,1,3.15c-9.32-6.64-19.38-12-29.41-17.46"/><path class="cls-77" d="M580.12,248.62a65,65,0,0,1,18.25,9.09c-.31.47-1,1-.88,1.39,2,7.65-1.53,13.13-7.82,16.29-7.12,3.59-14.71,3-21.51-1.47-7-4.6-8.32-12.58-3.09-18.51,2.81-3.15,6.71-4.77,10.87-5.52,1.46-.26,3,0,4.18-1.27"/><path class="cls-78" d="M579.75,273.73a11.16,11.16,0,0,1-9.67-3.69c-4.41-4.6-4.66-8.15-.62-12.85,5.32-6.22,18.86-4.81,22.69,2.34,3.63,6.79-2.53,14.16-12.4,14.2"/><path class="cls-79" d="M588,264.09c-.06,5-4.26,5.56-7.9,5.62s-7.11-1.65-6.82-6.4c.25-4.21,2.59-6.87,6.84-6.46,4,.39,8,1.4,7.88,7.24"/><path class="cls-80" d="M579.53,266.71c-1.73-.38-3.36-1.07-3.14-3.19.19-1.79,1.28-3.31,3.3-3.16s3.81,1.05,3.57,3.48c-.21,2-2,2.52-3.73,2.87"/><path class="cls-5" d="M654,737.22c-2.15-1.76-3.38-2.82-1.36-5.83,6.84-10.21,3-19.72-9-22.87-6.49-1.71-13.11-1.32-19.73-.88-3.77.77-7.5-.7-11.28-.26-1.9.22-4.09.29-5,2.13-1.07,2.17.9,3.39,2.36,4.54a6.53,6.53,0,0,1,2.12,3.27c3.32,12.31.42,24.7.31,37.06,0,4.63-.57,9.4-3.59,13.36,1.73,2.16,4.52.85,6.55,2,6.93-1,13.85.25,20.8,0,15.68-.5,23.66-7.62,23.7-21.48,1.73-5.63-2.47-8.26-5.88-11.07m-24.81-7.87a25,25,0,0,0,0-4h.14c0-1.7-.12-3.41,0-5.09.38-4.87,2.92-6.71,7.17-4.64,4.85,2.37,5,7.21,4.78,11.81-.18,4.18-2.33,6.4-6.81,6.6-3.62.14-6-.26-5.34-4.71m9.56,34.23c-5.67,1.71-8.7-.26-9.06-6.14-.32-5.11-.19-10.24-.61-15.32-.24-2.87,1.07-3.07,3.28-3,7.16.34,12.81,6.82,12.77,15.7-.3,3.5-1.57,7.29-6.38,8.72"/><path class="cls-5" d="M291,738.35c-4.41-2.21-5.56-4.82-1.82-9,1.7-1.88,2.84-4.61.81-7.3-1.5-7-5.32-10.89-12.4-11.65-5.76-.62-11.58-.64-17.38-.93H244.08c.62,4.22,7.38,1.62,5.84,6.89a338.09,338.09,0,0,1,.1,42.11c.85,4.35-.33,7.82-5.22,9.87l4.06.68,18.2.91c1.71-.08,3.41-.09,5.11-.26,12.72-1.35,23.86-6.18,23.47-20.32,2-5.14-1.73-7.92-4.61-11m-26.2-7.92a35.47,35.47,0,0,0,.05-5.65h.1c0-1.51,0-3,0-4.53.09-5.23,3.14-7,7.52-4.1s5,7.28,4.34,12-4,5.7-8.16,5.81c-2.78.09-4.4-.15-3.86-3.54m15,27.41c-.86,3.66-3.31,5.38-6.74,6-4.41.77-7.47-.27-7.53-5.59-.05-3.78-.47-7.56-.71-11.23.71-2.65-1.81-6.42,1.38-7.57,3.42-1.24,7.08.55,9.8,3.23,4.31,4.25,5.14,9.41,3.8,15.17"/></svg>