<svg xmlns="http://www.w3.org/2000/svg" width="341.426" height="61.825" viewBox="0 0 341.426 61.825">
  <g id="Group_618" data-name="Group 618" transform="translate(341.426 1.294) rotate(90)">
    <g id="Group_511" data-name="Group 511">
      <g id="Group_506" data-name="Group 506">
        <g id="Group_505" data-name="Group 505">
          <g id="Group_504" data-name="Group 504" transform="translate(8.267)">
            <path id="Path_7360" data-name="Path 7360" d="M149.635,473.936h-44.15V432.461H123.2v19.945h1.09V432.461h16.352V450.77h8.994Z" transform="translate(-104.721 -299.015)"/>
            <path id="Path_7361" data-name="Path 7361" d="M148.978,200.368c0,15.371-5.178,22.511-14.172,24.256l-1.417.273V201.186l.545-.163a1.061,1.061,0,0,0,.872-1.09v-.054c0-.6-.327-1.09-.818-1.09h-.109c-.654,0-.981.872-1.036,2.453l-.436,8.994c-.491,9.975-5.723,14.5-12.973,14.5h-.327c-9.7,0-15.861-8.013-15.861-23.874v-.109c0-15.535,5.451-22.075,14.281-23.82l1.363-.273v22.675l-.545.163c-.6.164-.927.436-.927,1.036v.055c0,.6.327.981.818.981h.109c.708,0,1.036-.654,1.09-2.4l.327-7.031c.545-11.719,5.723-16.516,12.972-16.516h.327c9.811,0,15.916,8.939,15.916,24.637Z" transform="translate(-103.247 -129.781)"/>
            <path id="Path_7362" data-name="Path 7362" d="M124.017,87.5H105.484V41.228h18.533V52.62h25.618V76.058H124.017Z" transform="translate(-104.721 -41.228)"/>
          </g>
          <path id="Path_7363" data-name="Path 7363" d="M116.322,319.425a21.659,21.659,0,0,0-3.465,4.7c-1.535-12.809-11.377-11.576-14.275,1.58a22.9,22.9,0,0,0-.575,6.274,45,45,0,0,0-3.051-3.565c-12.485-13.265-23,1.767-9.954,17.122,10.163,11.965,35.816,16.176,47.877-3.287C146.057,320.981,126.079,309.322,116.322,319.425Z" transform="translate(-79.009 -221.715)" stroke="#9068e4" stroke-width="2.547"/>
        </g>
      </g>
      <g id="Group_510" data-name="Group 510" transform="translate(9.031 189.515)">
        <g id="Group_509" data-name="Group 509">
          <g id="Group_508" data-name="Group 508">
            <g id="Group_507" data-name="Group 507">
              <path id="Path_7364" data-name="Path 7364" d="M149.621,1006.417H105.484V989.668h9.547v6.547h8.293v-6.383h9.438v6.383h16.858Z" transform="translate(-105.484 -854.507)"/>
              <path id="Path_7365" data-name="Path 7365" d="M149.621,954.059H105.484V943.584h34.644v-6.056h9.493Z" transform="translate(-105.484 -820.151)"/>
              <path id="Path_7366" data-name="Path 7366" d="M149.621,891.923H135.49l-30.006,7.693V888.158l21.168-1.146v-.437l-21.168-1.037V874.028l29.952,7.638h14.185Z" transform="translate(-105.484 -778.31)"/>
              <path id="Path_7367" data-name="Path 7367" d="M115.031,833.223h-9.547V813.091h9.547V818h34.589v10.311H115.031Z" transform="translate(-105.484 -738.158)"/>
              <path id="Path_7368" data-name="Path 7368" d="M149.621,790.187H105.484v-10.2h44.137Z" transform="translate(-105.484 -716.344)"/>
              <path id="Path_7369" data-name="Path 7369" d="M149.621,610.7H105.484V593.406h9.329V600.5h7.638v-6.874h8.729V600.5h9.165v-7.092h9.275Z" transform="translate(-105.484 -593.406)"/>
            </g>
          </g>
        </g>
      </g>
      <path id="Path_7370" data-name="Path 7370" d="M118.091,661.351a47.842,47.842,0,0,0,9.269-4.31,12.464,12.464,0,0,0,5.37-6.25c2.1-5.957-2.584-9.425-5.715-11.027s-22.17-9.511-41.481,5.008c-4.939,3.713-6.567,9.355-5.011,13.922,1.542,4.526,7.035,6.906,11.6,8.459a15.551,15.551,0,0,0-2.075,2.028,9.915,9.915,0,0,0-2.2,8.846c.919,3.242,3.843,5.335,6.821,6.586a32.308,32.308,0,0,0,6.042,1.721c22.153,4.543,34.9-.419,37.764-8.864,3.41-10.051-10.025-15.977-20.075-15.3" transform="translate(-79.632 -432.42)"/>
    </g>
    <g id="Group_512" data-name="Group 512" transform="translate(0.323 203.756)">
      <path id="Path_7371" data-name="Path 7371" d="M153.73,710.911c3.9-.168,12.719-4.086,10.351-12.908-2.61-9.727-13.958-6.669-13.958-6.669" transform="translate(-126.189 -672.22)" fill="none" stroke="#36ce4f" stroke-linecap="round" stroke-linejoin="round" stroke-width="2.19"/>
      <path id="Path_7372" data-name="Path 7372" d="M118.091,661.351a47.842,47.842,0,0,0,9.269-4.31,12.464,12.464,0,0,0,5.37-6.25c2.1-5.957-2.584-9.425-5.715-11.027s-22.17-9.511-41.481,5.008c-4.939,3.713-6.567,9.355-5.011,13.922,1.542,4.526,7.035,6.906,11.6,8.459a15.551,15.551,0,0,0-2.075,2.028,9.915,9.915,0,0,0-2.2,8.846c.919,3.242,3.843,5.335,6.821,6.586a32.308,32.308,0,0,0,6.042,1.721c22.153,4.543,34.9-.419,37.764-8.864,3.41-10.051-10.025-15.977-20.075-15.3" transform="translate(-79.955 -636.176)" fill="none" stroke="#36ce4f" stroke-linecap="round" stroke-linejoin="round" stroke-width="2.19"/>
      <path id="Path_7373" data-name="Path 7373" d="M115.62,722.546a16.78,16.78,0,0,1,3.977-2.3" transform="translate(-103.455 -691.569)" fill="none" stroke="#36ce4f" stroke-linecap="round" stroke-linejoin="round" stroke-width="4.382"/>
    </g>
    <g id="Group_513" data-name="Group 513" transform="translate(0.022 93.797)">
      <path id="Path_7374" data-name="Path 7374" d="M116.386,319.425a21.659,21.659,0,0,0-3.465,4.7c-1.535-12.809-11.377-11.576-14.275,1.58a22.9,22.9,0,0,0-.576,6.274,44.982,44.982,0,0,0-3.05-3.565c-12.485-13.265-23,1.767-9.954,17.122,10.163,11.965,35.816,16.176,47.877-3.287C146.121,320.981,126.143,309.322,116.386,319.425Z" transform="translate(-79.073 -315.147)" fill="none" stroke="#896cda" stroke-linecap="round" stroke-linejoin="round" stroke-width="2.19"/>
      <path id="Path_7375" data-name="Path 7375" d="M134.769,364.485c5.316,4,5.7,8.265,3.954,9.011C135.916,374.695,134.769,368.81,134.769,364.485Z" transform="translate(-115.771 -347.656)" fill="none" stroke="#9068e4" stroke-linecap="round" stroke-linejoin="round" stroke-width="2.19"/>
      <path id="Path_7376" data-name="Path 7376" d="M171.9,341.461c-3.772,5.288-4.219,10.567-1.893,10.571C173.151,352.036,171.9,341.461,171.9,341.461Z" transform="translate(-138.049 -332.485)" fill="none" stroke="#9068e4" stroke-linecap="round" stroke-linejoin="round" stroke-width="2.19"/>
    </g>
  </g>
</svg>
