<svg xmlns="http://www.w3.org/2000/svg" width="167.208" height="936.158" viewBox="0 0 167.208 936.158">
  <g id="Group_514" data-name="Group 514" transform="translate(2.186)">
    <g id="Group_511" data-name="Group 511">
      <g id="Group_506" data-name="Group 506">
        <g id="Group_505" data-name="Group 505">
          <g id="Group_504" data-name="Group 504" transform="translate(22.669)">
            <path id="Path_7360" data-name="Path 7360" d="M226.541,546.182H105.484V432.461h48.573v54.686h2.989V432.461h44.835v50.2h24.66Z" transform="translate(-103.392 -66.564)"/>
            <path id="Path_7361" data-name="Path 7361" d="M228.639,243.474c0,42.147-14.2,61.724-38.858,66.507l-3.886.747V245.716l1.495-.448a2.911,2.911,0,0,0,2.391-2.989v-.149c0-1.644-.9-2.99-2.242-2.99h-.3c-1.794,0-2.691,2.391-2.84,6.725l-1.2,24.66c-1.346,27.35-15.693,39.755-35.57,39.755h-.9c-26.6,0-43.491-21.97-43.491-65.46v-.3c0-42.595,14.945-60.529,39.157-65.312l3.736-.747v62.173l-1.495.448c-1.644.449-2.541,1.2-2.541,2.84v.15c0,1.643.9,2.69,2.242,2.69h.3c1.943,0,2.839-1.794,2.989-6.577l.9-19.279c1.495-32.132,15.692-45.284,35.569-45.284h.9c26.9,0,43.641,24.511,43.641,67.553Z" transform="translate(-103.247 -49.931)"/>
            <path id="Path_7362" data-name="Path 7362" d="M156.3,168.114H105.484V41.228H156.3V72.464h70.242v64.264H156.3Z" transform="translate(-103.392 -41.228)"/>
          </g>
          <path id="Path_7363" data-name="Path 7363" d="M181.319,326.877a59.387,59.387,0,0,0-9.5,12.88c-4.209-35.121-31.2-31.741-39.14,4.331a62.781,62.781,0,0,0-1.578,17.2,123.381,123.381,0,0,0-8.365-9.774c-34.232-36.371-63.052,4.845-27.293,46.948,27.866,32.807,98.205,44.352,131.274-9.012C262.848,331.144,208.07,299.177,181.319,326.877Z" transform="translate(-79.009 -58.967)" stroke="#9068e4" stroke-width="2.547"/>
        </g>
      </g>
      <g id="Group_510" data-name="Group 510" transform="translate(24.761 519.633)">
        <g id="Group_509" data-name="Group 509">
          <g id="Group_508" data-name="Group 508">
            <g id="Group_507" data-name="Group 507">
              <path id="Path_7364" data-name="Path 7364" d="M226.5,1035.592H105.484V989.668h26.178v17.951H154.4v-17.5h25.879v17.5H226.5Z" transform="translate(-105.484 -619.067)"/>
              <path id="Path_7365" data-name="Path 7365" d="M226.5,982.854H105.484V954.132h94.99v-16.6H226.5Z" transform="translate(-105.484 -615.691)"/>
              <path id="Path_7366" data-name="Path 7366" d="M226.5,923.094H187.758l-82.274,21.092V912.772l58.04-3.141v-1.2l-58.04-2.842V874.028l82.124,20.943H226.5Z" transform="translate(-105.484 -611.579)"/>
              <path id="Path_7367" data-name="Path 7367" d="M131.662,868.29H105.484v-55.2h26.178v13.463H226.5v28.273h-94.84Z" transform="translate(-105.484 -607.633)"/>
              <path id="Path_7368" data-name="Path 7368" d="M226.5,807.958H105.484V779.985H226.5Z" transform="translate(-105.484 -605.489)"/>
              <path id="Path_7369" data-name="Path 7369" d="M226.5,640.826H105.484v-47.42h25.58v19.446h20.942V594H175.94v18.849h25.131V593.406H226.5Z" transform="translate(-105.484 -593.406)"/>
            </g>
          </g>
        </g>
      </g>
      <path id="Path_7370" data-name="Path 7370" d="M184.52,705.2a131.187,131.187,0,0,0,25.414-11.818c6.584-4.1,12.151-9.843,14.725-17.137,5.766-16.332-7.084-25.843-15.669-30.234S148.2,619.936,95.254,659.744c-13.541,10.18-18.007,25.65-13.74,38.174,4.229,12.411,19.288,18.935,31.8,23.193a42.619,42.619,0,0,0-5.69,5.56c-5.488,6.553-8.435,15.794-6.036,24.255,2.52,8.89,10.536,14.629,18.7,18.057a88.568,88.568,0,0,0,16.567,4.719C197.6,786.16,232.546,772.555,240.4,749.4c9.349-27.559-27.488-43.807-55.044-41.946" transform="translate(-79.07 -77.495)"/>
    </g>
    <g id="Group_512" data-name="Group 512" transform="translate(0.885 558.682)">
      <path id="Path_7371" data-name="Path 7371" d="M160.012,745.806c10.7-.459,34.873-11.2,28.383-35.391-7.156-26.671-38.272-18.286-38.272-18.286" transform="translate(-84.499 -639.719)" fill="none" stroke="#36ce4f" stroke-linecap="round" stroke-linejoin="round" stroke-width="4.382"/>
      <path id="Path_7372" data-name="Path 7372" d="M184.52,705.2a131.187,131.187,0,0,0,25.414-11.818c6.584-4.1,12.151-9.843,14.725-17.137,5.766-16.332-7.084-25.843-15.669-30.234S148.2,619.936,95.254,659.744c-13.541,10.18-18.007,25.65-13.74,38.174,4.229,12.411,19.288,18.935,31.8,23.193a42.619,42.619,0,0,0-5.69,5.56c-5.488,6.553-8.435,15.794-6.036,24.255,2.52,8.89,10.536,14.629,18.7,18.057a88.568,88.568,0,0,0,16.567,4.719C197.6,786.16,232.546,772.555,240.4,749.4c9.349-27.559-27.488-43.807-55.044-41.946" transform="translate(-79.955 -636.176)" fill="none" stroke="#36ce4f" stroke-linecap="round" stroke-linejoin="round" stroke-width="4.382"/>
      <path id="Path_7373" data-name="Path 7373" d="M115.62,726.555a46.014,46.014,0,0,1,10.9-6.311" transform="translate(-82.265 -641.62)" fill="none" stroke="#36ce4f" stroke-linecap="round" stroke-linejoin="round" stroke-width="4.382"/>
    </g>
    <g id="Group_513" data-name="Group 513" transform="translate(0.06 257.182)">
      <path id="Path_7374" data-name="Path 7374" d="M181.383,326.877a59.386,59.386,0,0,0-9.5,12.88c-4.209-35.121-31.2-31.741-39.14,4.331a62.786,62.786,0,0,0-1.579,17.2,123.342,123.342,0,0,0-8.364-9.774c-34.232-36.371-63.052,4.845-27.293,46.948,27.866,32.807,98.2,44.352,131.274-9.012C262.912,331.144,208.134,299.177,181.383,326.877Z" transform="translate(-79.073 -315.147)" fill="none" stroke="#896cda" stroke-linecap="round" stroke-linejoin="round" stroke-width="4.382"/>
      <path id="Path_7375" data-name="Path 7375" d="M134.769,364.485c14.576,10.962,15.627,22.662,10.84,24.707C137.915,392.479,134.769,376.343,134.769,364.485Z" transform="translate(-82.679 -318.342)" fill="none" stroke="#9068e4" stroke-linecap="round" stroke-linejoin="round" stroke-width="4.382"/>
      <path id="Path_7376" data-name="Path 7376" d="M177.677,341.461c-10.344,14.5-11.569,28.975-5.19,28.984C181.116,370.457,177.677,341.461,177.677,341.461Z" transform="translate(-84.869 -316.851)" fill="none" stroke="#9068e4" stroke-linecap="round" stroke-linejoin="round" stroke-width="4.382"/>
    </g>
  </g>
</svg>
