<svg xmlns="http://www.w3.org/2000/svg" width="298.061" height="29.581" viewBox="0 0 298.061 29.581">
  <g id="Group_18" data-name="Group 18" transform="translate(-20.927 -699.815)">
    <g id="Group_15" data-name="Group 15" transform="translate(153.354 699.815)">
      <g id="Group_13" data-name="Group 13" transform="translate(94.122 0.276)">
        <path id="Path_22" data-name="Path 22" d="M348.656,714.176c-2.2,0-3.216-1.235-3.216-3.606v-6.753c0-2.387,1.049-3.606,3.216-3.606h.017c2.049,0,3.115,1.049,3.166,3.2l.017,3.233h-2.387l-.017-3.284c-.05-.627-.3-.914-.779-.914h-.017c-.575,0-.813.44-.813,1.27v6.957c0,.829.237,1.286.813,1.286h.017c.474,0,.762-.288.8-.93V707.76h2.387v3.25c-.068,2.134-1.185,3.166-3.182,3.166Z" transform="translate(-345.058 -700.211)" fill="#9068e4"/>
        <path id="Path_23" data-name="Path 23" d="M359.475,714.176c-2.15,0-3.217-1.219-3.217-3.606V703.8c0-2.37,1.084-3.589,3.217-3.589h.017c2.15,0,3.233,1.219,3.233,3.589v6.788c0,2.37-1.117,3.588-3.233,3.588Zm.033-2.235c.559,0,.813-.406.813-1.3v-6.89c0-.88-.271-1.3-.813-1.3h-.033c-.542,0-.813.423-.813,1.3v6.89c0,.9.271,1.3.813,1.3Z" transform="translate(-348.343 -700.211)" fill="#9068e4"/>
        <path id="Path_24" data-name="Path 24" d="M367.32,714.1V700.454h3.385l1.71,10.936h.1c-.068-1.524-.169-3.065-.169-4.4v-6.534h2.082V714.1h-3.4l-1.642-11.256h-.118c.068,1.49.169,3.182.169,4.469V714.1Z" transform="translate(-351.702 -700.285)" fill="#9068e4"/>
        <path id="Path_25" data-name="Path 25" d="M380.418,714.1l-1.574-13.643h2.522l.881,11.189h.118l.88-11.189h2.522L384.193,714.1Z" transform="translate(-355.201 -700.285)" fill="#9068e4"/>
        <path id="Path_26" data-name="Path 26" d="M390.124,714.1V700.454h4.892v2.167h-2.539v3.267h2.352V708h-2.352v3.928h2.539V714.1Z" transform="translate(-358.626 -700.285)" fill="#9068e4"/>
        <path id="Path_27" data-name="Path 27" d="M398.755,714.1V700.454h3.385l1.71,10.936h.1c-.068-1.524-.169-3.065-.169-4.4v-6.534h2.082V714.1h-3.4l-1.642-11.256H400.7c.068,1.49.17,3.182.17,4.469V714.1Z" transform="translate(-361.246 -700.285)" fill="#9068e4"/>
        <path id="Path_28" data-name="Path 28" d="M410.4,702.638v-2.184h5.57v2.184h-1.609V714.1h-2.37v-11.46Z" transform="translate(-364.782 -700.285)" fill="#9068e4"/>
        <path id="Path_29" data-name="Path 29" d="M419.833,714.1V700.454h2.352V714.1Z" transform="translate(-367.646 -700.285)" fill="#9068e4"/>
        <path id="Path_30" data-name="Path 30" d="M428.2,714.176c-2.15,0-3.216-1.219-3.216-3.606V703.8c0-2.37,1.084-3.589,3.216-3.589h.017c2.15,0,3.233,1.219,3.233,3.589v6.788c0,2.37-1.117,3.588-3.233,3.588Zm.034-2.235c.558,0,.812-.406.812-1.3v-6.89c0-.88-.27-1.3-.812-1.3H428.2c-.542,0-.812.423-.812,1.3v6.89c0,.9.27,1.3.812,1.3Z" transform="translate(-369.211 -700.211)" fill="#9068e4"/>
        <path id="Path_31" data-name="Path 31" d="M436.048,714.1V700.454h3.386l1.71,10.936h.1c-.068-1.524-.169-3.065-.169-4.4v-6.534h2.081V714.1h-3.4l-1.642-11.256H438c.068,1.49.169,3.182.169,4.469V714.1Z" transform="translate(-372.569 -700.285)" fill="#9068e4"/>
        <path id="Path_32" data-name="Path 32" d="M350.545,735.829c-3.825,0-5.653-2.506-5.653-6.923v-.2c0-4.418,1.913-6.907,5.653-6.907h.034c3.267,0,5.23,1.862,5.451,5.451l.034.458h-3.453l-.034-.609c-.169-1.371-.931-2.015-2-2.015h-.034c-1.455,0-2.166,1.219-2.166,3.3v.864c0,2.1.678,3.3,2.166,3.3h.034a1.92,1.92,0,0,0,2.015-1.964l.033-.626h3.453l-.034.508c-.2,3.605-2.234,5.366-5.467,5.366Z" transform="translate(-344.892 -706.765)" fill="#9068e4"/>
        <path id="Path_33" data-name="Path 33" d="M363.807,735.731V722.088h9.107v3.064h-5.772v2.217h5.332v2.861h-5.332v2.437h5.772v3.063Z" transform="translate(-350.635 -706.853)" fill="#9068e4"/>
        <path id="Path_34" data-name="Path 34" d="M379.877,735.731V722.088h4.841l3.52,9.852h.153c-.068-1.422-.135-2.827-.135-3.944v-5.908h3.182v13.643H386.58l-3.522-9.868h-.152c.051,1.3.135,2.742.135,3.994v5.874Z" transform="translate(-355.514 -706.853)" fill="#9068e4"/>
        <path id="Path_35" data-name="Path 35" d="M398.938,725.237v-3.149H409.3v3.149H405.81v10.494h-3.385V725.237Z" transform="translate(-361.302 -706.853)" fill="#9068e4"/>
        <path id="Path_36" data-name="Path 36" d="M416.272,735.731V722.088h9.107v3.064h-5.772v2.217h5.332v2.861h-5.332v2.437h5.772v3.063Z" transform="translate(-366.565 -706.853)" fill="#9068e4"/>
        <path id="Path_37" data-name="Path 37" d="M442.7,734.885c.084.441.118.61.254.763v.084H439.5a1.787,1.787,0,0,1-.237-.813l-.423-2.641c-.2-1.015-.542-1.286-1.642-1.286h-1.524v4.74h-3.334V722.088h6.009c2.675,0,4.181,1.321,4.181,3.724v.068a3.135,3.135,0,0,1-3.182,3.368v.085c1.693.186,2.489,1.033,2.861,3.047Zm-3.555-8.412c0-.864-.592-1.371-1.625-1.371h-1.845v2.877h1.659c1.151,0,1.811-.541,1.811-1.456Z" transform="translate(-371.444 -706.853)" fill="#9068e4"/>
      </g>
      <g id="Group_14" data-name="Group 14">
        <path id="Path_38" data-name="Path 38" d="M209.732,729.116V700.525h26.09v9.224H222.636V711.2h12.727v7.068H222.636v1.625h13.186v9.224Z" transform="translate(-209.732 -700.031)" fill="#9068e4"/>
        <path id="Path_39" data-name="Path 39" d="M250.545,729.116V700.525h13.328v8.835h.318l3.146-8.835h15.2l-5.833,12.228,5.833,16.363H267.019l-1.909-6.361-1.237,1.166v5.195Z" transform="translate(-222.124 -700.031)" fill="#9068e4"/>
        <path id="Path_40" data-name="Path 40" d="M311,729.4c-10.216,0-15.732-5.019-15.732-14.737v-.212c0-9.684,5.515-14.631,15.732-14.631h.071c10.181,0,15.7,4.947,15.7,14.631v.212c0,9.719-5.515,14.737-15.7,14.737Zm.071-10.921c1.343,0,2.05-1.061,2.05-3.781v-.212c0-2.721-.707-3.746-2.05-3.746H311c-1.378,0-2.086,1.025-2.086,3.746v.212c0,2.721.708,3.781,2.086,3.781Z" transform="translate(-235.703 -699.815)" fill="#9068e4"/>
      </g>
    </g>
    <g id="Group_616" data-name="Group 616" transform="translate(-3.123 -0.095)">
      <g id="Group_615" data-name="Group 615" transform="translate(24.05 699.91)">
        <path id="Path_7407" data-name="Path 7407" d="M39.545,708.595v12.514c0,5.618-2.378,8.142-7.73,8.142H24.05V700.417h7.764C37.166,700.417,39.545,702.941,39.545,708.595Zm-7.59-.676c0-.427-.07-.5-.49-.5v14.826c.385,0,.49-.106.49-.5Z" transform="translate(-24.05 -700.062)" fill="#fff"/>
        <path id="Path_7408" data-name="Path 7408" d="M46.85,729.266v-28.8H58.427v6.826H54.265v4.017h4.162v6.329H54.265v4.8h4.162v6.826Z" transform="translate(-30.901 -700.078)" fill="#fff"/>
        <path id="Path_7409" data-name="Path 7409" d="M71.834,729.49c-5.211,0-7.835-2.738-7.835-8.32V708.193c0-5.546,2.658-8.283,7.835-8.283h.07c5.212,0,7.764,2.772,7.835,7.963v6.578H72.114v-7q0-.426-.21-.426h-.035c-.175,0-.245.142-.245.426v14.506c0,.284.07.427.245.427H71.9c.175,0,.21-.143.21-.427v-7.075h7.625v6.613c-.071,5.369-2.728,8-7.835,8Z" transform="translate(-36.055 -699.91)" fill="#fff"/>
        <path id="Path_7410" data-name="Path 7410" d="M104.358,718.5a4.372,4.372,0,0,0-1.889,3.59h7.975v7H95.019v-6.151c0-5.013,1.294-7.217,5-9.6l1.19-.711c1.4-1.067,1.749-1.707,1.749-3.2v-2.347c0-.569-.071-.711-.246-.711h-.034c-.175,0-.245.142-.245.711l-.036,3.485h-7.45l.035-3.947c.175-4.515,2.483-6.719,7.555-6.719h.071c5.281,0,7.834,2.275,7.834,6.9v2.986c0,3.769-1.119,5.582-4.512,7.893Z" transform="translate(-45.355 -699.91)" fill="#fff"/>
        <path id="Path_7411" data-name="Path 7411" d="M121.056,729.266V710.032H117.7v-6.577c2.589-.107,3.778-.925,3.917-2.987h6.821V729.2Z" transform="translate(-52.191 -700.078)" fill="#fff"/>
        <path id="Path_7412" data-name="Path 7412" d="M136.8,724.128V717.8H148.48v6.328Z" transform="translate(-57.931 -705.286)" fill="#fff"/>
        <path id="Path_7413" data-name="Path 7413" d="M166.656,718.5a4.372,4.372,0,0,0-1.889,3.59h7.975v7H157.318v-6.151c0-5.013,1.294-7.217,5-9.6l1.189-.711c1.4-1.067,1.749-1.707,1.749-3.2v-2.347c0-.569-.07-.711-.245-.711h-.035c-.175,0-.245.142-.245.711l-.035,3.485h-7.45l.034-3.947c.175-4.515,2.484-6.719,7.555-6.719h.07c5.282,0,7.835,2.275,7.835,6.9v2.986c0,3.769-1.119,5.582-4.512,7.893Z" transform="translate(-64.076 -699.91)" fill="#fff"/>
        <path id="Path_7414" data-name="Path 7414" d="M195.328,717.854h1.014v6.506h-1.014v4.906h-7.415V724.36h-7.764v-6.044l4.372-17.849h10.808Zm-7.415-1.671a59.156,59.156,0,0,1,.63-8.284h-.28l-1.294,9.955h.944Z" transform="translate(-70.957 -700.078)" fill="#fff"/>
      </g>
    </g>
  </g>
</svg>
