<svg id="Layer_1" data-name="Layer 1" xmlns="http://www.w3.org/2000/svg" viewBox="0 0 1000 1000"><defs><style>.cls-1{fill:#fff;}.cls-2{fill:#0464a3;}.cls-3{fill:#e13236;}</style></defs><path class="cls-1" d="M486.39,791.45l0-.19c-.07-.86-.22-2.28-.4-3.78a47,47,0,0,0-1.8-8.12c-6.29-19.84-23.13-32.63-42.88-32.63a47.31,47.31,0,0,0-6,.39c-25.35,3.26-42.58,26.25-39.19,52.3,3,23.58,22,39.78,45.11,39.78a48.24,48.24,0,0,0,6-.41c12.33-1.55,23.12-6.71,31.25-16.73a2.79,2.79,0,0,0,.59-2,2.37,2.37,0,0,0-1-1.57c-1.36-1-6.22-3.32-8.85-4.6-.79-.38-1.41-.67-1.78-.83a3.83,3.83,0,0,0-1.88-.61,2.44,2.44,0,0,0-1.84,1,29.13,29.13,0,0,1-18.59,10.16,31,31,0,0,1-3.91.25c-12.31,0-24.74-8.24-28.33-19.56l-.09-.29.25-.12A35.93,35.93,0,0,1,428,801c1.05,0,2.12,0,3.17.12,2.45.2,4.93.5,7.53.84a112.47,112.47,0,0,0,15.54,1.28,75,75,0,0,0,10.66-.75c14.08-2.72,19.67-6.68,19.73-6.71,2-1.3,1.9-2.33,1.8-4.28m-15.94-5.76a55.85,55.85,0,0,1-9.45,1.89,50.61,50.61,0,0,1-6.43.37c-4.11,0-8.56-.34-12.87-.67h-.17c-4-.31-7.78-.6-11.4-.6a53.53,53.53,0,0,0-7.26.46,54.19,54.19,0,0,0-12.12,3l.06-.54c1.31-13.6,12.73-25.19,26.58-27.06a33.11,33.11,0,0,1,3.9-.22c13,0,25.65,9.88,29.41,23l.11.35Z"/><path class="cls-1" d="M707.14,751.91a2.14,2.14,0,0,0-2.14-2.12H693.32a2.13,2.13,0,0,0-2.11,2.12v83a2.14,2.14,0,0,0,2.11,2.14H705a2.15,2.15,0,0,0,2.14-2.14Z"/><path class="cls-1" d="M699.18,720.22a10.52,10.52,0,1,0,10.53,10.53,10.56,10.56,0,0,0-10.53-10.53"/><path class="cls-1" d="M544.28,839.23c.72,0,1.46,0,2.23,0a43.76,43.76,0,0,0,31.39-13,46.25,46.25,0,0,0,13-32.84c0-26.21-20.19-46.73-45.94-46.73-21,0-38.67,13.81-44.09,34.34-.89,3.49-1.86,12.38-1.86,21.24v65.06a2.16,2.16,0,0,0,2.13,2.16h11.59a2.16,2.16,0,0,0,2.16-2.16v-41l.62.6a46.07,46.07,0,0,0,28.77,12.27m.51-76.75c16.52,0,29.47,13.61,29.47,31S562,824.11,545.67,824.11a30.61,30.61,0,0,1-21.43-8.3A29.72,29.72,0,0,1,515.3,794c0-17.35,13.23-31.5,29.49-31.5"/><path class="cls-1" d="M336.4,839.23c.72,0,1.51,0,2.22,0a43.8,43.8,0,0,0,31.4-13,46.3,46.3,0,0,0,13-32.84c0-26.21-20.18-46.73-45.95-46.73-20.95,0-38.65,13.81-44.07,34.34-.94,3.49-1.87,12.38-1.87,21.24v65.06a2.15,2.15,0,0,0,2.12,2.16h11.62a2.15,2.15,0,0,0,2.14-2.16v-41l.58.6a46.08,46.08,0,0,0,28.8,12.27m.51-76.75c16.51,0,29.46,13.61,29.46,31s-12.28,30.65-28.59,30.65a30.53,30.53,0,0,1-21.42-8.3,29.69,29.69,0,0,1-9-21.83c0-17.35,13.25-31.5,29.51-31.5"/><path class="cls-1" d="M602.05,824.68c10.08,9.22,21.07,14.49,35.37,14.49h.43c24.66-.17,35.69-13.65,35.69-26.93,0-18.35-17.35-23.38-22.65-24.48-1.7-.35-3.48-.68-5.27-1-4.31-.83-8.74-1.69-12.82-2.83-2.82-.75-12.08-3.84-12.08-10.77,0-7.62,8.44-11.72,16.39-11.72,6.67,0,12.23,1.12,19.34,6.69a3.86,3.86,0,0,0,2.29.94,3.44,3.44,0,0,0,2.11-.77,87.47,87.47,0,0,0,8-6.87,2.46,2.46,0,0,0,.79-1.86,3.29,3.29,0,0,0-1.19-2.14c-9.53-7.54-18.69-10.63-31.57-10.67h-.1c-18.51,0-32.46,11.86-32.46,27.62,0,12.47,10.27,21.34,28.87,25l11.64,2.23c7.67,1.41,12,5.48,11.81,11.15s-7,11.31-18.12,11.31c-9.11,0-17.17-3.58-23.88-9.69l-.09-.11a2.83,2.83,0,0,0-1.82-.94A2.87,2.87,0,0,0,611,814c-.7.56-8.47,6.72-9.31,7.58a1.69,1.69,0,0,0-.52,1.29,2.67,2.67,0,0,0,.9,1.79"/><path class="cls-1" d="M723.67,819.86a9.66,9.66,0,1,1-9.52,9.69,9.61,9.61,0,0,1,9.52-9.69m0,17.62a8,8,0,1,0-7.85-7.93,7.86,7.86,0,0,0,7.85,7.93m1.51-6.56a2.93,2.93,0,0,0,2.1-3,3,3,0,0,0-3.12-3.17h-3.75v9.64h1.9v-3.33h.61l2.41,3.33h2.3Zm-1-4.32a1.3,1.3,0,0,1-.06,2.59h-1.79V826.6Z"/><path class="cls-1" d="M689.7,588.47c-104.77,104.76-274.65,104.75-379.39,0S205.52,313.8,310.31,209s274.62-104.77,379.39,0,104.78,274.63,0,379.42"/><path class="cls-2" d="M713.81,260.15a178.56,178.56,0,0,1,8,52.69c0,59.18-29.12,111.22-73.36,143.82-76.94,56.68-189.1,56.73-343.95,105.54A254.28,254.28,0,0,0,500,653.62c140.75,0,254.87-114.1,254.87-254.86a253.59,253.59,0,0,0-41.06-138.61"/><path class="cls-3" d="M652.84,194.8A253.64,253.64,0,0,0,500,143.88c-140.77,0-254.88,114.13-254.88,254.88a253.88,253.88,0,0,0,49.76,151.29c171.41-49.91,306.77-184.36,358-355.25"/></svg>