<svg xmlns="http://www.w3.org/2000/svg" width="24.049" height="90.815" viewBox="0 0 24.049 90.815">
  <g id="Group_517" data-name="Group 517" transform="translate(0)">
    <g id="Group_516" data-name="Group 516">
      <path id="Path_7377" data-name="Path 7377" d="M15.678,761.875A12.025,12.025,0,1,0,27.7,749.994,11.967,11.967,0,0,0,15.678,761.875Zm9.215-6.817a34.2,34.2,0,0,0-.436,3.611,35.229,35.229,0,0,0-3.654.431,13.918,13.918,0,0,1,.928-3.125A14.376,14.376,0,0,1,24.893,755.058Zm-2.411-.527A7.263,7.263,0,0,1,26,751.405a10.921,10.921,0,0,0-.87,2.505A16.1,16.1,0,0,0,22.482,754.53Zm5.221.289c.557,0,1.105.028,1.64.08a30.727,30.727,0,0,1,.485,3.707c-.707-.031-1.42-.047-2.126-.047s-1.419.016-2.126.047a30.727,30.727,0,0,1,.485-3.707C26.6,754.847,27.145,754.819,27.7,754.819Zm2.244,7.055q0,1.141-.051,2.167c-.693.032-1.423.05-2.193.05s-1.5-.018-2.193-.05c-.032-.685-.051-1.406-.051-2.167s.019-1.481.051-2.166c.693-.032,1.423-.051,2.193-.051s1.5.019,2.193.051C29.927,760.393,29.946,761.114,29.946,761.875Zm1.065-2.1a31.883,31.883,0,0,1,3.751.48c.052.529.08,1.07.08,1.62s-.028,1.092-.08,1.62a31.689,31.689,0,0,1-3.751.48c.031-.7.048-1.4.048-2.1S31.042,760.473,31.011,759.774ZM27.7,768.93q-.836,0-1.64-.08a30.707,30.707,0,0,1-.485-3.706c.707.031,1.42.047,2.126.047s1.419-.016,2.126-.047a30.707,30.707,0,0,1-.485,3.706C28.808,768.9,28.26,768.93,27.7,768.93Zm-3.309-4.955a31.855,31.855,0,0,1-3.75-.479,16.183,16.183,0,0,1,0-3.242,31.838,31.838,0,0,1,3.75-.48c-.031.7-.047,1.4-.047,2.1S24.363,763.276,24.394,763.975Zm-4.752-4.64a11.285,11.285,0,0,0-2.535.858,7.242,7.242,0,0,1,3.163-3.477A15.583,15.583,0,0,0,19.642,759.335Zm-.136,1.174c-.036.449-.056.9-.056,1.366s.021.918.056,1.367c-1.784-.456-2.716-1-2.716-1.367S17.722,760.964,19.506,760.509Zm-2.4,3.047a11.28,11.28,0,0,0,2.535.859,15.6,15.6,0,0,0,.628,2.618A7.239,7.239,0,0,1,17.106,763.556Zm3.7,1.095a35.48,35.48,0,0,0,3.654.431,34.153,34.153,0,0,0,.436,3.61,14.326,14.326,0,0,1-3.162-.917A13.909,13.909,0,0,1,20.8,764.651Zm4.328,5.188a10.931,10.931,0,0,0,.87,2.506,7.272,7.272,0,0,1-3.519-3.125A16.1,16.1,0,0,0,25.131,769.839Zm1.188.134c.455.036.916.055,1.383.055s.929-.02,1.383-.055c-.461,1.762-1.009,2.683-1.383,2.683S26.78,771.735,26.319,769.973Zm3.954-.134a16.1,16.1,0,0,0,2.65-.619,7.272,7.272,0,0,1-3.519,3.125A10.931,10.931,0,0,0,30.273,769.839Zm.238-1.147a34.153,34.153,0,0,0,.436-3.61,35.45,35.45,0,0,0,3.654-.431,13.861,13.861,0,0,1-.928,3.124A14.3,14.3,0,0,1,30.512,768.692Zm5.251-4.276a11.28,11.28,0,0,0,2.535-.859,7.239,7.239,0,0,1-3.163,3.477A15.6,15.6,0,0,0,35.763,764.415Zm.136-1.174c.036-.449.056-.9.056-1.367s-.02-.917-.056-1.366c1.784.455,2.716,1,2.716,1.366S37.682,762.786,35.9,763.242Zm2.4-3.048a11.311,11.311,0,0,0-2.536-.858,15.583,15.583,0,0,0-.628-2.619A7.249,7.249,0,0,1,38.3,760.193ZM34.6,759.1a35.2,35.2,0,0,0-3.654-.431,34.2,34.2,0,0,0-.436-3.611,14.346,14.346,0,0,1,3.162.917A13.87,13.87,0,0,1,34.6,759.1Zm-4.328-5.189a10.921,10.921,0,0,0-.87-2.505,7.263,7.263,0,0,1,3.519,3.125A16.1,16.1,0,0,0,30.273,753.91Zm-1.188-.134c-.455-.035-.916-.055-1.383-.055s-.929.021-1.383.055c.461-1.762,1.009-2.682,1.383-2.682S28.625,752.014,29.086,753.776Zm-6.136-1.6a11.048,11.048,0,0,0-2.048,2.984,11.2,11.2,0,0,0-3.02,2.024A10.916,10.916,0,0,1,22.95,752.172Zm-5.068,14.4A11.2,11.2,0,0,0,20.9,768.6a11.1,11.1,0,0,0,2.048,2.984A10.923,10.923,0,0,1,17.881,766.57Zm14.574,5.008A11.057,11.057,0,0,0,34.5,768.6a11.189,11.189,0,0,0,3.02-2.025A10.918,10.918,0,0,1,32.455,771.579Zm5.068-14.4a11.184,11.184,0,0,0-3.02-2.024,11.027,11.027,0,0,0-2.048-2.984A10.916,10.916,0,0,1,37.523,757.179Z" transform="translate(-15.678 -749.994)"/>
      <path id="Path_7378" data-name="Path 7378" d="M17.944,791.26v3.914a11.919,11.919,0,0,0,7.924-3v16.547H29.83V792.175a11.921,11.921,0,0,0,7.924,3V791.26a7.887,7.887,0,0,1-7.924-7.829H25.868A7.887,7.887,0,0,1,17.944,791.26Z" transform="translate(-15.825 -752.06)"/>
      <g id="Group_515" data-name="Group 515" transform="translate(0.098 61.563)">
        <path id="Path_7379" data-name="Path 7379" d="M39.635,829.9v6.954l-4.84,3.38v4.632H27.239v-1.921H20.465l-1.477-1.459H15.783V835.93l1.481-4.634,1.317-1.338v-1.406l-1.4-1v-3.614l.636-1.815-1.926-3.372,3.622-1.664v-1.477h4.029v2.183l11.638,5.8-2.318,2.828L34.91,829.9Zm-1.386,6.245v-4.875H34.113l-2.929-4.974,1.839-2.241-10.865-5.414v-1.657H20.9v.981l-3.064,1.407,1.5,2.619-.764,2.18v2.684l1.4,1v2.664l-1.481,1.5-1.317,4.122v3.972h2.392l1.477,1.46h7.586v1.92h4.784v-3.971Z" transform="translate(-15.783 -815.611)"/>
      </g>
    </g>
  </g>
</svg>
